<?xml version="1.0" encoding="UTF-8"?>
<svg version="1.1" xmlns="http://www.w3.org/2000/svg" width="260" height="260">
<path d="M0 0 C0.67417969 0.18191895 1.34835938 0.36383789 2.04296875 0.55126953 C21.34154161 5.93926929 37.9825483 16.33558726 52.9921875 29.38671875 C55.07564663 31.19689298 57.16863611 32.9561774 59.30859375 34.6953125 C61.8258772 36.85089629 62.69170107 38.081487 64 41 C64.99 41.66 65.98 42.32 67 43 C67.9549533 44.60295733 68.89896065 46.21349878 69.78515625 47.85546875 C71.13741953 50.24258303 72.65509663 52.47439869 74.1875 54.75 C93.23771369 84.73872348 97.87200657 118.78617943 90.51220703 153.28662109 C87.02476653 168.12415615 80.64409991 183.0909816 71.3125 195.1875 C69.80882535 197.07304748 69.80882535 197.07304748 69 200 C67.69205669 201.35824882 66.35099103 202.68456137 65 204 C63.9744795 205.20435786 62.95423095 206.41321276 61.9375 207.625 C53.81699984 216.91788659 44.39979329 224.41125745 34 231 C33.40622559 231.38043457 32.81245117 231.76086914 32.20068359 232.15283203 C21.1332297 239.13185892 9.56612338 243.46766877 -3 247 C-3.66902344 247.19352051 -4.33804688 247.38704102 -5.02734375 247.58642578 C-34.19261735 255.65620418 -68.27705412 249.59313417 -94.54150391 235.23657227 C-109.1225811 226.9247758 -122.39085519 216.38860297 -132.4765625 202.8984375 C-133.87039067 200.89076618 -133.87039067 200.89076618 -136 200 C-137.0078125 198.42578125 -137.0078125 198.42578125 -138.125 196.3125 C-139.63851026 193.47689402 -141.18286774 190.70072695 -142.859375 187.95703125 C-151.07945064 174.36841784 -156.4131778 159.68012225 -159 144 C-159.18175781 142.99839844 -159.36351562 141.99679688 -159.55078125 140.96484375 C-163.08922685 109.73421516 -157.45606674 74.6910105 -137.63574219 49.2487793 C-136.43557702 47.82254966 -135.2188944 46.41025666 -134 45 C-133.505 44.154375 -133.01 43.30875 -132.5 42.4375 C-118.96125927 20.43704632 -88.49928616 5.21177074 -64.16723633 -0.78613281 C-42.9692759 -5.79027194 -21.04315958 -5.76791108 0 0 Z " fill="#E4E5E4" transform="translate(163,6)"/>
<path d="M0 0 C0.99 0.66 1.98 1.32 3 2 C6.35672729 2.37629554 9.69259982 2.50580155 13.06640625 2.65625 C16 3 16 3 18 5 C19.90744816 5.38449053 19.90744816 5.38449053 22 5.5 C25.77777778 5.77777778 25.77777778 5.77777778 28 8 C28.9075 8.268125 29.815 8.53625 30.75 8.8125 C34 10 34 10 36.75 12.625 C39.45800492 15.05797317 41.14710721 15.23701512 44.75 15.0625 C46.02617187 14.98902344 46.02617187 14.98902344 47.328125 14.9140625 C52.63586295 15.08477922 57.32127617 17.66063809 62 20 C62 20.66 62 21.32 62 22 C62.7425 22.103125 63.485 22.20625 64.25 22.3125 C67.17014018 23.04253504 68.73187554 24.06789398 71 26 C70.76953125 27.89453125 70.76953125 27.89453125 70 30 C64.12150311 33.19188825 56.91375959 33.43900904 50.37109375 33.7890625 C48.04576461 33.74034642 48.04576461 33.74034642 47 35 C45.60652455 35.13201346 44.20981548 35.23058033 42.8125 35.3125 C38.25528974 35.7602766 35.68922789 37.23307908 32 40 C27.29723753 42.35138124 22.13271782 43.06315442 17 44 C20.00099588 44.10890711 22.99796378 44.18773555 26 44.25 C27.25876953 44.30027344 27.25876953 44.30027344 28.54296875 44.3515625 C34.48441684 44.44367797 39.08334924 43.48851134 44 40 C44.33 39.34 44.66 38.68 45 38 C48.35670711 35.76219526 51.06267291 36 55 36 C55.639375 35.649375 56.27875 35.29875 56.9375 34.9375 C61.90455879 32.67974601 68.04131781 35.4715841 72.9375 37.18359375 C75.49851208 38.1973277 77.70039642 39.48710291 80 41 C81.26683219 41.73609618 82.53788519 42.46496386 83.8125 43.1875 C84.864375 43.785625 85.91625 44.38375 87 45 C87 46.32 87 47.64 87 49 C80.913962 51.32003221 75.29035951 53.17465048 68.75 53.5 C64.00748432 53.75351127 60.88307152 54.69828172 56.77734375 57.015625 C52.10290262 59.60454624 47.41443463 60.05883012 42.1875 60.3125 C36.79400371 60.68054255 33.30307089 62.13423442 28.62890625 64.72265625 C20.47209232 68.68592245 11.89908732 69.18964904 3 69 C3.03029297 70.13800049 3.06058594 71.27600098 3.09179688 72.44848633 C3.83066373 100.6380693 4.13840682 128.8012076 4 157 C4.96244629 156.41412109 5.92489258 155.82824219 6.91650391 155.22460938 C33.49445537 139.11342995 60.25810492 128.1933941 91 123 C92.05058594 122.79503906 93.10117188 122.59007812 94.18359375 122.37890625 C97.92860606 121.87506964 101.60181758 121.89314975 105.375 121.9375 C106.11105469 121.94201172 106.84710938 121.94652344 107.60546875 121.95117188 C109.40368158 121.96284858 111.20185197 121.98077989 113 122 C112.46921257 128.19252004 111.4505901 133.68994796 109.4375 139.5625 C109.17428955 140.33553467 108.9110791 141.10856934 108.63989258 141.9050293 C98.42732816 170.88055598 77.8310285 196.01835615 50.21484375 209.98046875 C22.3423492 223.20875823 -9.81325294 226.72595658 -39.20751953 216.64111328 C-69.87643011 205.62107748 -93.95470863 184.08768419 -108.25 154.8125 C-112.8050105 145.11884732 -117.69684839 132.88825606 -117 122 C-105.66331528 121.50066805 -95.10645553 122.90694072 -84 125 C-83.30567871 125.1232666 -82.61135742 125.2465332 -81.89599609 125.37353516 C-56.15078676 130.04708834 -32.45853705 143.09828723 -10 156 C-9.13115481 136.06964125 -8.76852923 116.13281454 -8.4375 96.1875 C-8.4263982 95.51877113 -8.4152964 94.85004227 -8.40385818 94.16104889 C-8.26501628 85.77409896 -8.13054297 77.38708304 -8 69 C-8.9489917 69.01377686 -9.8979834 69.02755371 -10.87573242 69.04174805 C-12.12717041 69.05246338 -13.3786084 69.06317871 -14.66796875 69.07421875 C-16.5245813 69.09488403 -16.5245813 69.09488403 -18.41870117 69.1159668 C-25.22527 68.89556185 -30.58767386 66.95301634 -36.3125 63.375 C-41.0406302 60.56480621 -45.29278468 60.52069074 -50.69921875 60.3046875 C-56.43339029 59.77537936 -62.84578705 58.15421295 -67 54 C-69.32579259 53.74917923 -71.66268398 53.59579164 -74 53.5 C-80.77777778 53.22222222 -80.77777778 53.22222222 -83 51 C-85.65537372 50.43479997 -88.29144713 50.26211802 -91 50 C-91.75 48.25 -91.75 48.25 -92 46 C-90.3125 43.75 -90.3125 43.75 -88 42 C-86.68 42 -85.36 42 -84 42 C-83.76152344 41.36320312 -83.52304688 40.72640625 -83.27734375 40.0703125 C-82 38 -82 38 -79.94140625 37.2421875 C-79.15636719 37.12101562 -78.37132812 36.99984375 -77.5625 36.875 C-74.22861739 36.33674548 -72.92062747 35.94708498 -70 34 C-67.87890625 33.98828125 -67.87890625 33.98828125 -65.5625 34.3125 C-64.80066406 34.41175781 -64.03882813 34.51101562 -63.25390625 34.61328125 C-61.13259319 34.97725004 -59.08421117 35.46804652 -57 36 C-56.195625 36.103125 -55.39125 36.20625 -54.5625 36.3125 C-51.3061332 37.18615939 -49.55527364 38.8280174 -47 41 C-42.3740287 44.6154013 -38.29592107 44.3601349 -32.6875 44.1875 C-31.85154297 44.17396484 -31.01558594 44.16042969 -30.15429688 44.14648438 C-28.10258502 44.11131217 -26.05120725 44.05751048 -24 44 C-24.86882812 43.75765625 -25.73765625 43.5153125 -26.6328125 43.265625 C-27.78523438 42.93046875 -28.93765625 42.5953125 -30.125 42.25 C-31.26195313 41.92515625 -32.39890625 41.6003125 -33.5703125 41.265625 C-37 40 -37 40 -39.72265625 37.96484375 C-44.39777694 35.16200024 -48.95696466 34.87825001 -54.3125 34.3125 C-56.3089814 34.08277137 -58.30510182 33.84987553 -60.30078125 33.61328125 C-61.17903564 33.51829346 -62.05729004 33.42330566 -62.9621582 33.32543945 C-65 33 -65 33 -66 32 C-67.51165654 31.60851239 -69.03469632 31.26027543 -70.5625 30.9375 C-71.38878906 30.76089844 -72.21507812 30.58429687 -73.06640625 30.40234375 C-73.70449219 30.26957031 -74.34257813 30.13679688 -75 30 C-75.495 28.02 -75.495 28.02 -76 26 C-73.84997903 24.32776147 -71.71854683 22.83246835 -69.375 21.4375 C-66.92388629 20.08307837 -66.92388629 20.08307837 -65 18 C-62.66752239 17.66073053 -60.33414529 17.32759934 -58 17 C-57.01 16.34 -56.02 15.68 -55 15 C-52.765625 15.015625 -52.765625 15.015625 -50.25 15.25 C-46.15316832 15.35718455 -44.27150316 14.91719265 -41.25 12.125 C-40.70601563 11.57714844 -40.16203125 11.02929688 -39.6015625 10.46484375 C-37.34587196 8.40171216 -34.91577616 7.76365566 -32 7 C-31.67 6.67 -31.34 6.34 -31 6 C-29.906875 5.855625 -28.81375 5.71125 -27.6875 5.5625 C-24.19950816 5.24338925 -24.19950816 5.24338925 -22.1484375 3.99609375 C-18.5356792 2.32108763 -14.7071591 2.53805484 -10.77734375 2.34375 C-6.51754366 1.81651736 -4.5410003 -0.45410003 0 0 Z " fill="#EB692E" transform="translate(132,24)"/>
<path d="M0 0 C0.99 0.66 1.98 1.32 3 2 C6.35672729 2.37629554 9.69259982 2.50580155 13.06640625 2.65625 C16 3 16 3 18 5 C19.90744816 5.38449053 19.90744816 5.38449053 22 5.5 C25.77777778 5.77777778 25.77777778 5.77777778 28 8 C28.9075 8.268125 29.815 8.53625 30.75 8.8125 C34 10 34 10 36.75 12.625 C39.45800492 15.05797317 41.14710721 15.23701512 44.75 15.0625 C46.02617187 14.98902344 46.02617187 14.98902344 47.328125 14.9140625 C52.63586295 15.08477922 57.32127617 17.66063809 62 20 C62 20.66 62 21.32 62 22 C62.7425 22.103125 63.485 22.20625 64.25 22.3125 C67.17014018 23.04253504 68.73187554 24.06789398 71 26 C70.76953125 27.89453125 70.76953125 27.89453125 70 30 C64.12150311 33.19188825 56.91375959 33.43900904 50.37109375 33.7890625 C48.04576461 33.74034642 48.04576461 33.74034642 47 35 C45.60652455 35.13201346 44.20981548 35.23058033 42.8125 35.3125 C38.25528974 35.7602766 35.68922789 37.23307908 32 40 C27.29723753 42.35138124 22.13271782 43.06315442 17 44 C20.00099588 44.10890711 22.99796378 44.18773555 26 44.25 C27.25876953 44.30027344 27.25876953 44.30027344 28.54296875 44.3515625 C34.48441684 44.44367797 39.08334924 43.48851134 44 40 C44.33 39.34 44.66 38.68 45 38 C48.35670711 35.76219526 51.06267291 36 55 36 C55.639375 35.649375 56.27875 35.29875 56.9375 34.9375 C61.90455879 32.67974601 68.04131781 35.4715841 72.9375 37.18359375 C75.49851208 38.1973277 77.70039642 39.48710291 80 41 C81.26683219 41.73609618 82.53788519 42.46496386 83.8125 43.1875 C84.864375 43.785625 85.91625 44.38375 87 45 C87 46.32 87 47.64 87 49 C80.913962 51.32003221 75.29035951 53.17465048 68.75 53.5 C64.00748432 53.75351127 60.88307152 54.69828172 56.77734375 57.015625 C52.10290262 59.60454624 47.41443463 60.05883012 42.1875 60.3125 C36.79400371 60.68054255 33.30307089 62.13423442 28.62890625 64.72265625 C20.47209232 68.68592245 11.89908732 69.18964904 3 69 C3.03029297 70.13276367 3.06058594 71.26552734 3.09179688 72.43261719 C3.42762336 85.20815049 3.70452964 97.98436798 3.9395752 110.762146 C3.97966453 112.9103271 4.0212353 115.05848111 4.06433105 117.206604 C4.18737225 123.35618424 4.28451398 129.50508278 4.34204102 135.65563965 C4.36397259 137.58992334 4.394702 139.52412773 4.43432617 141.45812988 C4.4878393 144.16124371 4.50963046 146.86283822 4.5234375 149.56640625 C4.54606659 150.36544876 4.56869568 151.16449127 4.5920105 151.98774719 C4.57660238 156.02906573 4.38522236 157.61563171 1.46728516 160.52709961 C0.65308105 161.01315674 -0.16112305 161.49921387 -1 162 C-3.9719385 160.87548273 -6.33440687 159.77706209 -9 158 C-9.35644531 155.84765625 -9.35644531 155.84765625 -9.328125 153.0625 C-9.32361328 151.96687744 -9.31910156 150.87125488 -9.31445312 149.74243164 C-9.28254883 147.88992798 -9.28254883 147.88992798 -9.25 146 C-9.23356445 144.05371704 -9.23356445 144.05371704 -9.21679688 142.06811523 C-9.17950286 138.05098042 -9.11698703 134.03450076 -9.05004883 130.01776123 C-8.99382922 126.62792451 -8.94117385 123.23804083 -8.88867188 119.84814453 C-8.62334841 102.89816022 -8.32280571 85.94898648 -8 69 C-8.9489917 69.01377686 -9.8979834 69.02755371 -10.87573242 69.04174805 C-12.12717041 69.05246338 -13.3786084 69.06317871 -14.66796875 69.07421875 C-16.5245813 69.09488403 -16.5245813 69.09488403 -18.41870117 69.1159668 C-25.22527 68.89556185 -30.58767386 66.95301634 -36.3125 63.375 C-41.0406302 60.56480621 -45.29278468 60.52069074 -50.69921875 60.3046875 C-56.43339029 59.77537936 -62.84578705 58.15421295 -67 54 C-69.32579259 53.74917923 -71.66268398 53.59579164 -74 53.5 C-80.77777778 53.22222222 -80.77777778 53.22222222 -83 51 C-85.65537372 50.43479997 -88.29144713 50.26211802 -91 50 C-91.75 48.25 -91.75 48.25 -92 46 C-90.3125 43.75 -90.3125 43.75 -88 42 C-86.68 42 -85.36 42 -84 42 C-83.64228516 41.04480469 -83.64228516 41.04480469 -83.27734375 40.0703125 C-82 38 -82 38 -79.94140625 37.2421875 C-79.15636719 37.12101562 -78.37132812 36.99984375 -77.5625 36.875 C-74.22861739 36.33674548 -72.92062747 35.94708498 -70 34 C-67.87890625 33.98828125 -67.87890625 33.98828125 -65.5625 34.3125 C-64.80066406 34.41175781 -64.03882812 34.51101562 -63.25390625 34.61328125 C-61.13259319 34.97725004 -59.08421117 35.46804652 -57 36 C-56.195625 36.103125 -55.39125 36.20625 -54.5625 36.3125 C-51.3061332 37.18615939 -49.55527364 38.8280174 -47 41 C-42.3740287 44.6154013 -38.29592107 44.3601349 -32.6875 44.1875 C-31.85154297 44.17396484 -31.01558594 44.16042969 -30.15429688 44.14648438 C-28.10258502 44.11131217 -26.05120725 44.05751048 -24 44 C-24.86882812 43.75765625 -25.73765625 43.5153125 -26.6328125 43.265625 C-27.78523438 42.93046875 -28.93765625 42.5953125 -30.125 42.25 C-31.83042969 41.76273438 -31.83042969 41.76273438 -33.5703125 41.265625 C-37 40 -37 40 -39.72265625 37.96484375 C-44.39777694 35.16200024 -48.95696466 34.87825001 -54.3125 34.3125 C-56.3089814 34.08277137 -58.30510182 33.84987553 -60.30078125 33.61328125 C-61.61816284 33.47079956 -61.61816284 33.47079956 -62.9621582 33.32543945 C-65 33 -65 33 -66 32 C-67.51165654 31.60851239 -69.03469632 31.26027543 -70.5625 30.9375 C-71.80193359 30.67259766 -71.80193359 30.67259766 -73.06640625 30.40234375 C-73.70449219 30.26957031 -74.34257813 30.13679688 -75 30 C-75.33 28.68 -75.66 27.36 -76 26 C-73.84997903 24.32776147 -71.71854683 22.83246835 -69.375 21.4375 C-66.92388629 20.08307837 -66.92388629 20.08307837 -65 18 C-62.66752239 17.66073053 -60.33414529 17.32759934 -58 17 C-57.01 16.34 -56.02 15.68 -55 15 C-52.765625 15.015625 -52.765625 15.015625 -50.25 15.25 C-46.15316832 15.35718455 -44.27150316 14.91719265 -41.25 12.125 C-40.43402344 11.30322266 -40.43402344 11.30322266 -39.6015625 10.46484375 C-37.34587196 8.40171216 -34.91577616 7.76365566 -32 7 C-31.67 6.67 -31.34 6.34 -31 6 C-29.906875 5.855625 -28.81375 5.71125 -27.6875 5.5625 C-24.19950816 5.24338925 -24.19950816 5.24338925 -22.1484375 3.99609375 C-18.5356792 2.32108763 -14.7071591 2.53805484 -10.77734375 2.34375 C-6.51754366 1.81651736 -4.5410003 -0.45410003 0 0 Z " fill="#17575B" transform="translate(132,24)"/>
<path d="M0 0 C0.67417969 0.18191895 1.34835938 0.36383789 2.04296875 0.55126953 C21.34154161 5.93926929 37.9825483 16.33558726 52.9921875 29.38671875 C55.07564663 31.19689298 57.16863611 32.9561774 59.30859375 34.6953125 C61.8258772 36.85089629 62.69170107 38.081487 64 41 C64.99 41.66 65.98 42.32 67 43 C67.9549533 44.60295733 68.89896065 46.21349878 69.78515625 47.85546875 C71.13741953 50.24258303 72.65509663 52.47439869 74.1875 54.75 C93.23771369 84.73872348 97.87200657 118.78617943 90.51220703 153.28662109 C87.02476653 168.12415615 80.64409991 183.0909816 71.3125 195.1875 C69.80882535 197.07304748 69.80882535 197.07304748 69 200 C67.69205669 201.35824882 66.35099103 202.68456137 65 204 C63.9744795 205.20435786 62.95423095 206.41321276 61.9375 207.625 C53.81699984 216.91788659 44.39979329 224.41125745 34 231 C33.40622559 231.38043457 32.81245117 231.76086914 32.20068359 232.15283203 C21.1332297 239.13185892 9.56612338 243.46766877 -3 247 C-3.66902344 247.19352051 -4.33804688 247.38704102 -5.02734375 247.58642578 C-34.19261735 255.65620418 -68.27705412 249.59313417 -94.54150391 235.23657227 C-109.1225811 226.9247758 -122.39085519 216.38860297 -132.4765625 202.8984375 C-133.87039067 200.89076618 -133.87039067 200.89076618 -136 200 C-137.0078125 198.42578125 -137.0078125 198.42578125 -138.125 196.3125 C-139.63851026 193.47689402 -141.18286774 190.70072695 -142.859375 187.95703125 C-151.07945064 174.36841784 -156.4131778 159.68012225 -159 144 C-159.18175781 142.99839844 -159.36351562 141.99679688 -159.55078125 140.96484375 C-163.08922685 109.73421516 -157.45606674 74.6910105 -137.63574219 49.2487793 C-136.43557702 47.82254966 -135.2188944 46.41025666 -134 45 C-133.505 44.154375 -133.01 43.30875 -132.5 42.4375 C-118.96125927 20.43704632 -88.49928616 5.21177074 -64.16723633 -0.78613281 C-42.9692759 -5.79027194 -21.04315958 -5.76791108 0 0 Z M-88 14 C-88.92184082 14.47010498 -88.92184082 14.47010498 -89.86230469 14.94970703 C-98.38075126 19.37542927 -105.79819668 24.66113465 -113 31 C-113.89203125 31.73605469 -114.7840625 32.47210938 -115.703125 33.23046875 C-131.6571129 46.83694129 -144.30188038 66.80763437 -150 87 C-150.55300781 88.75183594 -150.55300781 88.75183594 -151.1171875 90.5390625 C-159.87609941 121.11894407 -154.15929346 156.22160075 -139.12011719 183.77880859 C-135.61310623 189.92361433 -131.48624522 195.53311254 -127 201 C-126.30261719 201.85078125 -125.60523437 202.7015625 -124.88671875 203.578125 C-108.69776749 222.40111037 -86.09314637 236.04147993 -62 242 C-60.82824219 242.29777344 -59.65648438 242.59554687 -58.44921875 242.90234375 C-41.49331684 246.66069994 -23.80880164 246.26235461 -7 242 C-6.31776367 241.83371094 -5.63552734 241.66742188 -4.93261719 241.49609375 C21.6636841 234.90499568 46.6535429 219.10225186 63 197 C63.58910156 196.236875 64.17820313 195.47375 64.78515625 194.6875 C74.62426486 181.41927154 80.74268236 166.85850823 85 151 C85.3403125 149.81664062 85.680625 148.63328125 86.03125 147.4140625 C93.05426801 118.99685073 87.05689578 86.71574632 72.11376953 61.79248047 C54.24409164 33.0333452 27.1259093 12.09798458 -6 4 C-34.20891919 -1.21235097 -62.33533429 0.85551098 -88 14 Z " fill="#585B59" transform="translate(163,6)"/>
<path d="M0 0 C9.62201843 -0.56111123 18.62606474 1.07995474 28 3 C29.63388672 3.32484375 29.63388672 3.32484375 31.30078125 3.65625 C39.07672016 5.38652515 45.88447149 8.47414394 53 12 C54.30653787 12.61878164 55.61385855 13.23591253 56.921875 13.8515625 C69.24521612 19.72631614 79.92221967 27.01088109 90.23999023 35.96386719 C94.62389781 39.75426732 99.191886 43.13193232 103.953125 46.44140625 C106 48 106 48 107 50 C105.68 50.33 104.36 50.66 103 51 C103 51.66 103 52.32 103 53 C100.5625 52.625 100.5625 52.625 98 52 C97.67 51.34 97.34 50.68 97 50 C97.01160156 50.62648437 97.02320312 51.25296875 97.03515625 51.8984375 C97.04417969 52.71570313 97.05320312 53.53296875 97.0625 54.375 C97.07410156 55.18710938 97.08570312 55.99921875 97.09765625 56.8359375 C97 59 97 59 96 61 C95.34 61 94.68 61 94 61 C93.67 60.34 93.34 59.68 93 59 C92.92572162 62.34252724 92.93453047 64.8035914 94 68 C98.3137563 70.71606878 102.94371052 72 108 72 C106.02 70.35 104.04 68.7 102 67 C102.33 66.34 102.66 65.68 103 65 C105.64 66.98 108.28 68.96 111 71 C112.32 70.34 113.64 69.68 115 69 C115.29130183 64.04786889 115.30895436 60.84265668 112 57 C109.70325094 55.72913219 107.48730887 54.89167677 105 54 C105.33 53.01 105.66 52.02 106 51 C112.625 51.75 112.625 51.75 116 54 C116.1875 56.625 116.1875 56.625 116 59 C116.99 58.01 117.98 57.02 119 56 C120.485 56.495 120.485 56.495 122 57 C121.40895235 61.84659077 120.02055843 65.60748167 118 70 C121.53586014 66.82679218 123.58578031 64.83256305 124 60 C127.43493576 60.59772664 130.44231496 61.47527784 133.64453125 62.84765625 C134.48564453 63.20537109 135.32675781 63.56308594 136.19335938 63.93164062 C137.48983398 64.49141602 137.48983398 64.49141602 138.8125 65.0625 C139.69615234 65.43955078 140.57980469 65.81660156 141.49023438 66.20507812 C143.66201124 67.13248554 145.83181367 68.06423634 148 69 C145.8764453 71.1235547 144.95742855 71.47275975 142.1484375 72.25390625 C141.37886719 72.46853516 140.60929688 72.68316406 139.81640625 72.90429688 C138.60791016 73.23010742 138.60791016 73.23010742 137.375 73.5625 C136.59253906 73.78357422 135.81007812 74.00464844 135.00390625 74.23242188 C106.41394546 82.07925191 75.37391862 76.29493278 49.91796875 61.80859375 C27.16251237 47.70447554 9.81541395 27.90148428 0 3 C0 2.01 0 1.02 0 0 Z " fill="#7E284A" transform="translate(21,169)"/>
<path d="M0 0 C0.95777344 0.00902344 1.91554688 0.01804688 2.90234375 0.02734375 C3.61519531 0.03894531 4.32804687 0.05054688 5.0625 0.0625 C5.7734375 1.59765625 5.7734375 1.59765625 6.0625 4.0625 C5.04497122 6.67772749 3.98161133 9.02737014 2.6875 11.5 C2.32245361 12.20866211 1.95740723 12.91732422 1.58129883 13.64746094 C-4.66526978 25.49481378 -12.64639585 35.47876264 -21.9375 45.0625 C-22.618125 45.83464844 -23.29875 46.60679687 -24 47.40234375 C-25.9375 49.0625 -25.9375 49.0625 -27.91796875 49.375 C-30.6081901 48.9940837 -33.26773512 48.57260396 -35.9375 48.0625 C-37.20335937 47.82273438 -38.46921875 47.58296875 -39.7734375 47.3359375 C-55.24108514 44.15473857 -70.26450307 37.9619906 -83.9375 30.0625 C-84.2675 29.4025 -84.5975 28.7425 -84.9375 28.0625 C-79.61718036 25.36931751 -74.28237236 22.70661032 -68.9375 20.0625 C-68.16245117 19.67787598 -67.38740234 19.29325195 -66.58886719 18.89697266 C-45.97463033 8.71853236 -23.4152761 -0.28907748 0 0 Z " fill="#BB3939" transform="translate(231.9375,168.9375)"/>
<path d="M0 0 C-0.31660615 6.01551686 -1.56064562 11.30983267 -3.4375 17 C-3.65494873 17.6710376 -3.87239746 18.3420752 -4.09643555 19.03344727 C-5.74802468 23.87401234 -5.74802468 23.87401234 -8 25 C-8 24.34 -8 23.68 -8 23 C-9.48693359 23.22236328 -9.48693359 23.22236328 -11.00390625 23.44921875 C-14.2777961 23.91832568 -17.55637953 24.26607557 -20.84741211 24.59545898 C-30.16985413 25.56352941 -38.98264804 27.48261494 -48 30 C-48.92425781 30.2475 -49.84851563 30.495 -50.80078125 30.75 C-62.17918497 33.94393789 -72.61505001 39.20221759 -83 44.75 C-85.18541172 45.91538291 -87.37282872 47.07701533 -89.5625 48.234375 C-90.98755859 48.99572754 -90.98755859 48.99572754 -92.44140625 49.77246094 C-94.7030201 50.85751766 -96.51420339 51.7095925 -99 52 C-101.35892291 50.66887247 -103.40195176 49.34914594 -105.5625 47.75 C-106.13935547 47.34136719 -106.71621094 46.93273437 -107.31054688 46.51171875 C-110.08245688 44.52310511 -112.69673224 42.52457819 -115 40 C-85.92955387 14.88636459 -38.33448878 -2.64173353 0 0 Z " fill="#E36D2E" transform="translate(245,146)"/>
<path d="M0 0 C35.46007946 -1.63942148 68.80033686 15.48283907 96.10644531 36.54931641 C118.23277835 53.50066645 141.526932 66.27389697 169 72 C169 72.99 169 73.98 169 75 C157.17099511 82.66572384 157.17099511 82.66572384 150.35986328 81.57861328 C145.00486945 79.94276872 140.00484275 77.57686713 135.02978516 75.02783203 C132.73904724 73.8678601 130.40546272 72.89653702 128 72 C128.0825 72.721875 128.165 73.44375 128.25 74.1875 C127.92256852 77.87110419 126.53906064 79.38626111 124 82 C123.34 82 122.68 82 122 82 C122.2165625 81.39671875 122.433125 80.7934375 122.65625 80.171875 C122.9346875 79.37265625 123.213125 78.5734375 123.5 77.75 C123.7784375 76.96109375 124.056875 76.1721875 124.34375 75.359375 C125.17864861 72.76587262 125.17864861 72.76587262 125 69 C124.34 68.67 123.68 68.34 123 68 C122.505 69.485 122.505 69.485 122 71 C121.34 71 120.68 71 120 71 C119.9175 70.21625 119.835 69.4325 119.75 68.625 C119.26384675 65.92244851 119.26384675 65.92244851 117.25 64.6875 C114.72491331 63.91594573 112.62610707 63.85410516 110 64 C109.67 64.66 109.34 65.32 109 66 C110.0828125 66.0928125 110.0828125 66.0928125 111.1875 66.1875 C114.87798635 67.2536405 116.49572729 69.14791164 119 72 C120.52491998 75.04983996 120.23562548 77.6423369 120 81 C118.5 82.9375 118.5 82.9375 117 84 C113.00499382 82.6302836 110.19990508 80.74277578 107 78 C107.78375 78.78375 108.5675 79.5675 109.375 80.375 C110.91666667 81.91666667 112.45833333 83.45833333 114 85 C107.60921313 84.74739973 103.05989624 84.30091181 98 80 C95.5705484 76.3558226 95.83820425 74.28758728 96 70 C96.66 70.33 97.32 70.66 98 71 C98 71.66 98 72.32 98 73 C98.66 73 99.32 73 100 73 C100 69.37 100 65.74 100 62 C100.66 61.67 101.32 61.34 102 61 C102.33 61.99 102.66 62.98 103 64 C105.01508358 64.73323796 105.01508358 64.73323796 107 65 C107 64.34 107 63.68 107 63 C107.99 62.34 108.98 61.68 110 61 C109.18917969 60.38253906 108.37835938 59.76507813 107.54296875 59.12890625 C102.11858701 54.98390652 96.73872485 50.81729064 91.5 46.4375 C81.32985755 38.10179883 70.91451318 31.49293337 59.03955078 25.95410156 C57.03625647 25.01696077 55.04799226 24.05214599 53.05859375 23.0859375 C39.2160713 16.53175845 23.87578977 12.76277512 8.5 12.9375 C7.4584375 12.94652344 6.416875 12.95554688 5.34375 12.96484375 C4.5703125 12.97644531 3.796875 12.98804688 3 13 C2.49487756 11.39743892 1.99608373 9.79288208 1.5 8.1875 C1.2215625 7.29417969 0.943125 6.40085938 0.65625 5.48046875 C0 3 0 3 0 0 Z " fill="#BC3A3D" transform="translate(17,157)"/>
<path d="M0 0 C7.84407221 -0.62752578 14.5704313 1.65552239 22 4 C23.05058594 4.31195313 24.10117187 4.62390625 25.18359375 4.9453125 C36.36658077 8.406367 45.58771508 14.16937038 55 21 C56.13965653 21.80865829 57.28034359 22.61586553 58.421875 23.421875 C61.41833132 25.53968335 64.40085662 27.67579995 67.37402344 29.82617188 C68.8411119 30.8852952 70.31470587 31.93539297 71.7890625 32.984375 C76.31938631 36.31940165 78.64099445 38.78535615 81 44 C82.82676431 44.85318539 82.82676431 44.85318539 85 45 C85.99 45.350625 86.98 45.70125 88 46.0625 C91.11247453 47.19885 91.11247453 47.19885 95 47 C93.02 45.35 91.04 43.7 89 42 C89.495 41.01 89.495 41.01 90 40 C92.64 41.98 95.28 43.96 98 46 C99.32 45.34 100.64 44.68 102 44 C102.29130183 39.04786889 102.30895436 35.84265668 99 32 C96.70325094 30.72913219 94.48730887 29.89167677 92 29 C92.495 27.515 92.495 27.515 93 26 C99.625 26.75 99.625 26.75 103 29 C103.1875 31.625 103.1875 31.625 103 34 C103.99 33.01 104.98 32.02 106 31 C107.485 31.495 107.485 31.495 109 32 C108.40895235 36.84659077 107.02055843 40.60748167 105 45 C108.53586014 41.82679218 110.58578031 39.83256305 111 35 C114.43493576 35.59772664 117.44231496 36.47527784 120.64453125 37.84765625 C121.48564453 38.20537109 122.32675781 38.56308594 123.19335938 38.93164062 C124.48983398 39.49141602 124.48983398 39.49141602 125.8125 40.0625 C126.69615234 40.43955078 127.57980469 40.81660156 128.49023438 41.20507812 C130.66201124 42.13248554 132.83181367 43.06423634 135 44 C132.8764453 46.1235547 131.95742855 46.47275975 129.1484375 47.25390625 C128.37886719 47.46853516 127.60929687 47.68316406 126.81640625 47.90429688 C125.60791016 48.23010742 125.60791016 48.23010742 124.375 48.5625 C123.59253906 48.78357422 122.81007813 49.00464844 122.00390625 49.23242188 C93.41394546 57.07925191 62.37391862 51.29493278 36.91796875 36.80859375 C23.10987681 28.25016461 8.95738884 16.73850315 0 3 C0 2.01 0 1.02 0 0 Z " fill="#4D1C4A" transform="translate(34,194)"/>
<path d="M0 0 C2.05078125 0.03255208 4.1015625 0.06510417 6.15234375 0.09765625 C6.15234375 0.75765625 6.15234375 1.41765625 6.15234375 2.09765625 C6.91546875 2.24203125 7.67859375 2.38640625 8.46484375 2.53515625 C11.15234375 3.09765625 11.15234375 3.09765625 14.15234375 4.09765625 C14.15234375 4.75765625 14.15234375 5.41765625 14.15234375 6.09765625 C15.12171875 5.91203125 16.09109375 5.72640625 17.08984375 5.53515625 C18.10046875 5.39078125 19.11109375 5.24640625 20.15234375 5.09765625 C20.64734375 5.59265625 20.64734375 5.59265625 21.15234375 6.09765625 C23.63456716 6.38250156 26.1170323 6.54572178 28.609375 6.71875 C31.21865389 7.10753656 32.8306857 7.8980569 35.15234375 9.09765625 C36.81457392 9.4524516 38.48203123 9.78310105 40.15234375 10.09765625 C42.42991232 10.76250335 44.70062985 11.45115998 46.96484375 12.16015625 C48.12628906 12.52238281 49.28773438 12.88460937 50.484375 13.2578125 C51.80501953 13.67353516 51.80501953 13.67353516 53.15234375 14.09765625 C51.52515198 17.3520398 48.42153564 17.80125257 45.15234375 19.09765625 C43.66734375 19.59265625 43.66734375 19.59265625 42.15234375 20.09765625 C41.65734375 18.61265625 41.65734375 18.61265625 41.15234375 17.09765625 C39.08736988 16.11061673 39.08736988 16.11061673 36.65234375 15.47265625 C32.22409263 14.16940513 32.22409263 14.16940513 31.15234375 13.09765625 C29.66195706 12.70499668 28.15958525 12.35711448 26.65234375 12.03515625 C25.83765625 11.85855469 25.02296875 11.68195312 24.18359375 11.5 C22.33397248 11.0652726 22.33397248 11.0652726 21.15234375 11.09765625 C23.93013703 15.0907341 25.64761054 17.30899068 30.46484375 18.47265625 C31.68171875 18.67890625 32.89859375 18.88515625 34.15234375 19.09765625 C34.15234375 19.42765625 34.15234375 19.75765625 34.15234375 20.09765625 C32.38184686 20.15176312 30.61087526 20.19049744 28.83984375 20.22265625 C27.36064453 20.25746094 27.36064453 20.25746094 25.8515625 20.29296875 C23.15234375 20.09765625 23.15234375 20.09765625 20.15234375 18.09765625 C16.3248547 18.27998217 16.3248547 18.27998217 13.15234375 20.09765625 C11.61012544 20.09174737 10.06799221 20.04247416 8.52734375 19.97265625 C2.42318415 19.92040952 -1.52858372 21.13536411 -6.28515625 25.16015625 C-9.71138786 27.75072161 -12.65731237 28.24538292 -16.84765625 29.09765625 C-16.84765625 29.75765625 -16.84765625 30.41765625 -16.84765625 31.09765625 C-8.43265625 33.07765625 -8.43265625 33.07765625 0.15234375 35.09765625 C0.15234375 35.75765625 0.15234375 36.41765625 0.15234375 37.09765625 C-1.16765625 37.09765625 -2.48765625 37.09765625 -3.84765625 37.09765625 C-3.84765625 37.75765625 -3.84765625 38.41765625 -3.84765625 39.09765625 C-10.03347181 38.6942335 -17.33604759 36.60926491 -21.84765625 32.09765625 C-23.46530393 31.81262792 -25.09284484 31.5832098 -26.72265625 31.37890625 C-28.19992188 31.18748047 -28.19992188 31.18748047 -29.70703125 30.9921875 C-30.7434375 30.86199219 -31.77984375 30.73179688 -32.84765625 30.59765625 C-34.88981369 30.34111657 -36.93151374 30.08089985 -38.97265625 29.81640625 C-39.88273437 29.70232422 -40.7928125 29.58824219 -41.73046875 29.47070312 C-43.84765625 29.09765625 -43.84765625 29.09765625 -44.84765625 28.09765625 C-46.35931279 27.70616864 -47.88235257 27.35793168 -49.41015625 27.03515625 C-50.23644531 26.85855469 -51.06273437 26.68195312 -51.9140625 26.5 C-52.55214844 26.36722656 -53.19023438 26.23445313 -53.84765625 26.09765625 C-54.17765625 24.77765625 -54.50765625 23.45765625 -54.84765625 22.09765625 C-52.69763528 20.42541772 -50.56620308 18.9301246 -48.22265625 17.53515625 C-45.77154254 16.18073462 -45.77154254 16.18073462 -43.84765625 14.09765625 C-41.51517864 13.75838678 -39.18180154 13.42525559 -36.84765625 13.09765625 C-35.85765625 12.43765625 -34.86765625 11.77765625 -33.84765625 11.09765625 C-31.61328125 11.11328125 -31.61328125 11.11328125 -29.09765625 11.34765625 C-25.00082457 11.4548408 -23.11915941 11.0148489 -20.09765625 8.22265625 C-19.28167969 7.40087891 -19.28167969 7.40087891 -18.44921875 6.5625 C-16.19352821 4.49936841 -13.76343241 3.86131191 -10.84765625 3.09765625 C-10.51765625 2.76765625 -10.18765625 2.43765625 -9.84765625 2.09765625 C-7.51432292 1.76432292 -5.18098958 1.43098958 -2.84765625 1.09765625 C-1.84765625 0.09765625 -1.84765625 0.09765625 0 0 Z " fill="#054E58" transform="translate(110.84765625,27.90234375)"/>
<path d="M0 0 C2.24090815 2.82719226 3.8930562 5.65131397 5.5 8.875 C19.79043175 35.36889451 45.48568552 53.76715223 73.92529297 62.39794922 C92.66197274 67.83506999 114.15667954 68.28263956 133 63 C133.80888672 62.77425293 134.61777344 62.54850586 135.45117188 62.31591797 C166.1210211 53.47410828 191.49353123 34.70494258 207.1875 6.5625 C207.785625 5.386875 208.38375 4.21125 209 3 C209.99 3.33 210.98 3.66 212 4 C213 7 213 7 211.48046875 10.1875 C210.73074748 11.46700182 209.96534475 12.73739775 209.1875 14 C208.58095581 14.99942627 208.58095581 14.99942627 207.9621582 16.01904297 C204.56587806 21.44294334 200.71528536 26.02864218 196.26171875 30.6328125 C193.96457459 32.95973436 193.96457459 32.95973436 192.0078125 35.54296875 C175.54781385 55.68565192 144.86554198 68.64539483 119.640625 71.75 C85.89246576 74.06747016 54.29606421 65.97392106 28 44 C26.50726563 42.75283203 26.50726563 42.75283203 24.984375 41.48046875 C13.4599693 31.53520364 3.18861122 19.00077786 -3 5 C-2.67 4.01 -2.34 3.02 -2 2 C-1.34 2 -0.68 2 0 2 C0 1.34 0 0.68 0 0 Z " fill="#DEDDDE" transform="translate(24,179)"/>
<path d="M0 0 C3.26170837 0.59630351 5.13224998 1.64369767 7.625 3.8125 C8.21539062 4.31394531 8.80578125 4.81539062 9.4140625 5.33203125 C11 7 11 7 12.0234375 9.07421875 C12.97234917 11.33633165 12.97234917 11.33633165 16 13 C16.9549533 14.60295733 17.89896065 16.21349878 18.78515625 17.85546875 C20.13741953 20.24258303 21.65509663 22.47439869 23.1875 24.75 C42.23771369 54.73872348 46.87200657 88.78617943 39.51220703 123.28662109 C36.02476653 138.12415615 29.64409991 153.0909816 20.3125 165.1875 C18.80882535 167.07304748 18.80882535 167.07304748 18 170 C16.69205669 171.35824882 15.35099103 172.68456137 14 174 C12.93211542 175.24540306 11.87021939 176.49595218 10.8125 177.75 C6.91029548 182.26298436 2.5333516 186.13482947 -2 190 C-2.66 189.34 -3.32 188.68 -4 188 C-2.49168562 185.28503411 -1.11333744 183.11000399 1.125 180.9375 C3.1313691 179.21470921 3.1313691 179.21470921 3.3671875 177.1484375 C4.23132969 174.21462142 5.84944164 172.84925919 8 170.6875 C13.80914082 164.39887455 17.93997422 157.48929416 22 150 C22.32242676 149.4112207 22.64485352 148.82244141 22.97705078 148.21582031 C37.55038303 121.0519221 40.18364445 87.98964311 31.74609375 58.5625 C26.19188522 40.15955575 16.54358126 23.4381455 3.1796875 9.55078125 C2 8 2 8 2 5 C2.61875 5.33 3.2375 5.66 3.875 6 C5.91018344 7.14193235 5.91018344 7.14193235 8 7 C6.8553125 6.319375 6.8553125 6.319375 5.6875 5.625 C3.76367186 4.46175508 1.87058776 3.2470585 0 2 C0 1.34 0 0.68 0 0 Z " fill="#595C5B" transform="translate(214,36)"/>
<path d="M0 0 C2.56101208 1.01373395 4.76289642 2.30350916 7.0625 3.81640625 C8.32933219 4.55250243 9.60038519 5.28137011 10.875 6.00390625 C11.926875 6.60203125 12.97875 7.20015625 14.0625 7.81640625 C14.0625 9.13640625 14.0625 10.45640625 14.0625 11.81640625 C7.976462 14.13643846 2.35285951 15.99105673 -4.1875 16.31640625 C-8.93001568 16.56991752 -12.05442848 17.51468797 -16.16015625 19.83203125 C-20.83459738 22.42095249 -25.52306537 22.87523637 -30.75 23.12890625 C-36.12268883 23.49156275 -39.86367639 24.85876068 -44.48828125 27.5625 C-50.3894868 30.58369136 -55.902059 31.09538289 -62.375 30.94140625 C-63.10654297 30.93238281 -63.83808594 30.92335937 -64.59179688 30.9140625 C-66.37384298 30.89076778 -68.15571759 30.85490815 -69.9375 30.81640625 C-69.6075 29.82640625 -69.2775 28.83640625 -68.9375 27.81640625 C-67.79152344 27.62304688 -66.64554688 27.4296875 -65.46484375 27.23046875 C-63.93486117 26.96764966 -62.40491518 26.70461746 -60.875 26.44140625 C-60.12283203 26.31507812 -59.37066406 26.18875 -58.59570312 26.05859375 C-53.93174757 25.2509824 -49.4650066 24.19930999 -44.9375 22.81640625 C-45.91589844 22.70683594 -46.89429688 22.59726563 -47.90234375 22.484375 C-55.22118824 21.61608499 -62.02162686 20.48569062 -68.9375 17.81640625 C-68.9375 16.82640625 -68.9375 15.83640625 -68.9375 14.81640625 C-69.5975 14.15640625 -70.2575 13.49640625 -70.9375 12.81640625 C-70.36644531 12.93757813 -69.79539063 13.05875 -69.20703125 13.18359375 C-51.69609454 17.08595606 -51.69609454 17.08595606 -33.9375 16.81640625 C-32.00613909 14.92187276 -32.00613909 14.92187276 -30.9375 12.81640625 C-31.63617188 12.76742187 -32.33484375 12.7184375 -33.0546875 12.66796875 C-33.96476562 12.59320313 -34.87484375 12.5184375 -35.8125 12.44140625 C-36.71742188 12.37179688 -37.62234375 12.3021875 -38.5546875 12.23046875 C-40.9375 11.81640625 -40.9375 11.81640625 -42.9375 9.81640625 C-45.59287372 9.25120622 -48.22894713 9.07852427 -50.9375 8.81640625 C-50.9375 8.48640625 -50.9375 8.15640625 -50.9375 7.81640625 C-49.56078125 7.77773437 -49.56078125 7.77773437 -48.15625 7.73828125 C-40.73437005 7.39525319 -35.22628005 6.88561687 -28.9375 2.81640625 C-28.6075 2.15640625 -28.2775 1.49640625 -27.9375 0.81640625 C-24.58079289 -1.42139849 -21.87482709 -1.18359375 -17.9375 -1.18359375 C-16.9784375 -1.70953125 -16.9784375 -1.70953125 -16 -2.24609375 C-11.03294121 -4.50384774 -4.89618219 -1.71200965 0 0 Z " fill="#116E65" transform="translate(204.9375,61.18359375)"/>
<path d="M0 0 C1.14275391 0.14888672 1.14275391 0.14888672 2.30859375 0.30078125 C4.42967799 0.66471078 6.47779247 1.15867482 8.5625 1.6875 C9.34625 1.77 10.13 1.8525 10.9375 1.9375 C14.73859534 3.02352724 16.81732312 4.87993273 19.5625 7.6875 C20.5625 10.875 20.5625 10.875 20.5625 13.6875 C19.9025 14.3475 19.2425 15.0075 18.5625 15.6875 C19.2225 17.0075 19.8825 18.3275 20.5625 19.6875 C29.81033797 20.07764316 37.96440961 19.28868752 46.96875 17.34375 C50.31655504 16.73241169 53.17789999 16.32913059 56.5625 16.6875 C57.5525 18.1725 57.5525 18.1725 58.5625 19.6875 C50.11049096 22.91463072 41.4546441 24.24801399 32.5625 25.6875 C36.1925 27.0075 39.8225 28.3275 43.5625 29.6875 C43.0675 31.1725 43.0675 31.1725 42.5625 32.6875 C37.42057554 33.37308993 34.86441206 32.46577768 30.4375 29.75 C25.08860937 26.60661085 20.91142088 26.15440067 14.79296875 25.95703125 C9.08373425 25.48068641 2.69097001 23.81597001 -1.4375 19.6875 C-3.76329259 19.43667923 -6.10018398 19.28329164 -8.4375 19.1875 C-15.21527778 18.90972222 -15.21527778 18.90972222 -17.4375 16.6875 C-20.09287372 16.12229997 -22.72894713 15.94961802 -25.4375 15.6875 C-26.1875 13.9375 -26.1875 13.9375 -26.4375 11.6875 C-24.75 9.4375 -24.75 9.4375 -22.4375 7.6875 C-21.1175 7.6875 -19.7975 7.6875 -18.4375 7.6875 C-18.19902344 7.05070312 -17.96054687 6.41390625 -17.71484375 5.7578125 C-16.4375 3.6875 -16.4375 3.6875 -14.37890625 2.9296875 C-13.59386719 2.80851562 -12.80882812 2.68734375 -12 2.5625 C-7.40207442 1.82016605 -4.71039654 -0.65929665 0 0 Z " fill="#0D5A59" transform="translate(66.4375,58.3125)"/>
<path d="M0 0 C0.99 0.66 1.98 1.32 3 2 C6.35672729 2.37629554 9.69259982 2.50580155 13.06640625 2.65625 C16 3 16 3 18 5 C19.90744816 5.38449053 19.90744816 5.38449053 22 5.5 C25.77777778 5.77777778 25.77777778 5.77777778 28 8 C28.9075 8.268125 29.815 8.53625 30.75 8.8125 C34 10 34 10 36.75 12.625 C39.45800492 15.05797317 41.14710721 15.23701512 44.75 15.0625 C46.02617187 14.98902344 46.02617187 14.98902344 47.328125 14.9140625 C52.63586295 15.08477922 57.32127617 17.66063809 62 20 C62 20.66 62 21.32 62 22 C62.7425 22.103125 63.485 22.20625 64.25 22.3125 C67.17014018 23.04253504 68.73187554 24.06789398 71 26 C70.67 27.32 70.34 28.64 70 30 C66.37 30.99 62.74 31.98 59 33 C59 32.34 59 31.68 59 31 C58.29875 30.7525 57.5975 30.505 56.875 30.25 C54 29 54 29 51.25 26.875 C47.072837 24.46509827 43.72404087 24.42366701 39 25 C38.01 25.495 38.01 25.495 37 26 C32.32818984 26.41527201 29.82491487 25.69993991 26 23 C26.495 21.515 26.495 21.515 27 20 C29.0625 19.3125 29.0625 19.3125 31 19 C26.47621287 16.36112418 21.35132198 15.42751309 16.25 14.5 C14 14 14 14 12.171875 13.00390625 C9.6914714 11.85738876 7.71749116 11.6321983 5 11.4375 C1.87104943 11.20378266 -0.96339481 10.76547756 -4 10 C-4.99 10 -5.98 10 -7 10 C-7 9.34 -7 8.68 -7 8 C-7.5775 7.855625 -8.155 7.71125 -8.75 7.5625 C-10.83333333 7.04166667 -12.91666667 6.52083333 -15 6 C-15 5.34 -15 4.68 -15 4 C-16.65 4 -18.3 4 -20 4 C-20 3.67 -20 3.34 -20 3 C-18.75283203 2.92652344 -18.75283203 2.92652344 -17.48046875 2.8515625 C-16.39378906 2.77679687 -15.30710937 2.70203125 -14.1875 2.625 C-13.10855469 2.55539063 -12.02960938 2.48578125 -10.91796875 2.4140625 C-6.60269523 1.80172114 -4.5827165 -0.45827165 0 0 Z " fill="#59BC39" transform="translate(132,24)"/>
<path d="M0 0 C0.56460938 0.14566406 1.12921875 0.29132812 1.7109375 0.44140625 C4.780325 1.19042061 7.87735036 1.78970879 10.9765625 2.40234375 C13 3 13 3 15 5 C16.96690374 5.67292501 16.96690374 5.67292501 19.125 6.125 C20.40375 6.41375 21.6825 6.7025 23 7 C23.33 8.32 23.66 9.64 24 11 C25.65 10.01 27.3 9.02 29 8 C29 8.66 29 9.32 29 10 C32.82708507 11.80098121 35.77853434 12.28143104 40 12 C40.66 11.67 41.32 11.34 42 11 C49.63725657 10.03018964 53.57106725 12.04737817 59.91015625 16.2734375 C60.59980469 16.84320313 61.28945312 17.41296875 62 18 C62 18.66 62 19.32 62 20 C61.21753906 20.06058594 60.43507812 20.12117188 59.62890625 20.18359375 C58.11103516 20.30927734 58.11103516 20.30927734 56.5625 20.4375 C55.55316406 20.51871094 54.54382813 20.59992187 53.50390625 20.68359375 C51.06359221 20.73211468 51.06359221 20.73211468 50 22 C47.32941149 22.14115161 44.67567762 22.04247107 42 22 C42 21.34 42 20.68 42 20 C41.47567383 20.176521 40.95134766 20.35304199 40.41113281 20.53491211 C38.02461992 21.33736519 35.63732103 22.13745453 33.25 22.9375 C32.425 23.21529297 31.6 23.49308594 30.75 23.77929688 C29.95078125 24.04677734 29.1515625 24.31425781 28.328125 24.58984375 C27.5949707 24.83597412 26.86181641 25.08210449 26.10644531 25.33569336 C21.39682837 26.82095851 17.18281348 27.12311113 12.25 27.0625 C11.55261719 27.05798828 10.85523438 27.05347656 10.13671875 27.04882812 C8.42444197 27.0371002 6.71220967 27.01916653 5 27 C5 26.67 5 26.34 5 26 C6.33804688 25.61908203 6.33804688 25.61908203 7.703125 25.23046875 C8.87359375 24.88628906 10.0440625 24.54210937 11.25 24.1875 C12.41015625 23.85105469 13.5703125 23.51460937 14.765625 23.16796875 C17.72201315 22.10038414 19.64347706 21.03570917 22 19 C21.67 18.34 21.34 17.68 21 17 C20.27296875 17.41572266 20.27296875 17.41572266 19.53125 17.83984375 C14.5861627 20.51209285 10.60455867 21.59967438 5 22 C5 21.34 5 20.68 5 20 C6.98 19.67 8.96 19.34 11 19 C11.33 16.69 11.66 14.38 12 12 C10.35 12 8.7 12 7 12 C7.99 11.34 8.98 10.68 10 10 C9.278125 9.46375 8.55625 8.9275 7.8125 8.375 C4.752158 5.7907112 2.48779989 3.12751986 0 0 Z " fill="#10825F" transform="translate(129,37)"/>
<path d="M0 0 C-3.24557605 4.40569685 -6.56964885 8.73639401 -10 13 C-10.64050293 13.79857422 -10.64050293 13.79857422 -11.29394531 14.61328125 C-17.76837617 22.47400201 -17.76837617 22.47400201 -22.25390625 23.53125 C-24.98825481 23.34618411 -27.35595189 22.73618594 -30 22 C-31.42161223 21.68427579 -32.84495899 21.37630647 -34.26953125 21.07421875 C-47.08110444 18.28773222 -47.08110444 18.28773222 -51 16 C-40.80558006 4.55319431 -19.54075742 0.15513365 -4.8125 -1.0546875 C-3 -1 -3 -1 0 0 Z " fill="#8B2843" transform="translate(226,195)"/>
<path d="M0 0 C0.99 0.33 1.98 0.66 3 1 C4 4 4 4 2.48046875 7.1875 C1.73074748 8.46700182 0.96534475 9.73739775 0.1875 11 C-0.21686279 11.66628418 -0.62122559 12.33256836 -1.0378418 13.01904297 C-4.43412194 18.44294334 -8.28471464 23.02864218 -12.73828125 27.6328125 C-15.03542541 29.95973436 -15.03542541 29.95973436 -16.9921875 32.54296875 C-29.9765425 48.43238372 -51.47028153 58.56351272 -70.625 64.5 C-71.47860107 64.76780273 -72.33220215 65.03560547 -73.21166992 65.31152344 C-77.45586702 66.55710761 -80.65607162 67.48934687 -85 66 C-85.33 65.01 -85.66 64.02 -86 63 C-85.29617187 62.79955078 -84.59234375 62.59910156 -83.8671875 62.39257812 C-47.79931646 52.01011655 -20.06465875 35.35070853 -1 2 C-0.67 1.34 -0.34 0.68 0 0 Z " fill="#DFDDDE" transform="translate(233,182)"/>
<path d="M0 0 C0 1.98 0 3.96 0 6 C1.0725 6.12375 2.145 6.2475 3.25 6.375 C7 7 7 7 8.8125 8.03125 C11.85342382 9.37794483 14.44295764 9.19114085 17.75 9.125 C18.92046875 9.10695313 20.0909375 9.08890625 21.296875 9.0703125 C22.18890625 9.04710937 23.0809375 9.02390625 24 9 C24 9.99 24 10.98 24 12 C21.36 12.66 18.72 13.32 16 14 C16 14.66 16 15.32 16 16 C24.415 17.98 24.415 17.98 33 20 C33 20.66 33 21.32 33 22 C31.68 22 30.36 22 29 22 C29 22.66 29 23.32 29 24 C22.81418444 23.59657725 15.51160866 21.51160866 11 17 C9.38235232 16.71497167 7.75481141 16.48555355 6.125 16.28125 C4.64773437 16.08982422 4.64773437 16.08982422 3.140625 15.89453125 C2.10421875 15.76433594 1.0678125 15.63414063 0 15.5 C-2.04215744 15.24346032 -4.08385749 14.9832436 -6.125 14.71875 C-7.03507812 14.60466797 -7.94515625 14.49058594 -8.8828125 14.37304688 C-11 14 -11 14 -12 13 C-13.51165654 12.60851239 -15.03469632 12.26027543 -16.5625 11.9375 C-17.38878906 11.76089844 -18.21507812 11.58429687 -19.06640625 11.40234375 C-19.70449219 11.26957031 -20.34257813 11.13679688 -21 11 C-21.33 9.68 -21.66 8.36 -22 7 C-19.84997903 5.32776147 -17.71854683 3.83246835 -15.375 2.4375 C-12.92388629 1.08307837 -12.92388629 1.08307837 -11 -1 C-6.6820104 -1.95955325 -3.76943289 -2.56321436 0 0 Z " fill="#153D54" transform="translate(78,43)"/>
<path d="M0 0 C6.625 0.75 6.625 0.75 10 3 C10.1875 5.625 10.1875 5.625 10 8 C10.99 7.01 11.98 6.02 13 5 C14.485 5.495 14.485 5.495 16 6 C15.40895235 10.84659077 14.02055843 14.60748167 12 19 C15.53586014 15.82679218 17.58578031 13.83256305 18 9 C21.43493576 9.59772664 24.44231496 10.47527784 27.64453125 11.84765625 C28.48564453 12.20537109 29.32675781 12.56308594 30.19335938 12.93164062 C31.05767578 13.30482422 31.92199219 13.67800781 32.8125 14.0625 C33.69615234 14.43955078 34.57980469 14.81660156 35.49023438 15.20507812 C37.66201124 16.13248554 39.83181367 17.06423634 42 18 C39.8764453 20.1235547 38.95742855 20.47275975 36.1484375 21.25390625 C35.37886719 21.46853516 34.60929687 21.68316406 33.81640625 21.90429688 C33.01074219 22.12150391 32.20507812 22.33871094 31.375 22.5625 C30.59253906 22.78357422 29.81007812 23.00464844 29.00390625 23.23242188 C19.74574232 25.77342707 10.99712394 26.1587995 1.4375 26.125 C-0.20895508 26.13080078 -0.20895508 26.13080078 -1.88867188 26.13671875 C-7.36527775 26.13011645 -12.60694982 25.97492729 -18 25 C-18 24.67 -18 24.34 -18 24 C-12.39 24 -6.78 24 -1 24 C-1 23.34 -1 22.68 -1 22 C-0.01 21.67 0.98 21.34 2 21 C0.02 19.35 -1.96 17.7 -4 16 C-3.67 15.34 -3.34 14.68 -3 14 C-0.36 15.98 2.28 17.96 5 20 C6.32 19.34 7.64 18.68 9 18 C9.29130183 13.04786889 9.30895436 9.84265668 6 6 C3.70325094 4.72913219 1.48730887 3.89167677 -1 3 C-0.67 2.01 -0.34 1.02 0 0 Z " fill="#8B2A4C" transform="translate(127,220)"/>
<path d="M0 0 C0.57105469 0.12117188 1.14210937 0.24234375 1.73046875 0.3671875 C21.00274682 5.45821058 21.00274682 5.45821058 39.40234375 2.48046875 C39.92957031 1.99191406 40.45679688 1.50335938 41 1 C41.66 1.33 42.32 1.66 43 2 C43 2.99 43 3.98 43 5 C43.74765625 4.84402344 44.4953125 4.68804687 45.265625 4.52734375 C46.25046875 4.33269531 47.2353125 4.13804688 48.25 3.9375 C49.71179688 3.64166016 49.71179688 3.64166016 51.203125 3.33984375 C53.868119 3.01602465 55.48871723 3.14496801 58 4 C55.01323274 8.48015089 51.12748989 8.92776351 46 10 C44.00228093 10.15730071 42.0017384 10.28189589 40 10.375 C34.68893434 10.69543657 31.01927008 12.07424873 26.44921875 14.74609375 C20.5480132 17.76728511 15.035441 18.27897664 8.5625 18.125 C7.83095703 18.11597656 7.09941406 18.10695313 6.34570312 18.09765625 C4.56365702 18.07436153 2.78178241 18.0385019 1 18 C1.33 17.01 1.66 16.02 2 15 C3.14597656 14.80664062 4.29195312 14.61328125 5.47265625 14.4140625 C7.00263883 14.15124341 8.53258482 13.88821121 10.0625 13.625 C10.81466797 13.49867187 11.56683594 13.37234375 12.34179688 13.2421875 C17.00575243 12.43457615 21.4724934 11.38290374 26 10 C25.02160156 9.89042969 24.04320312 9.78085938 23.03515625 9.66796875 C15.71631176 8.79967874 8.91587314 7.66928437 2 5 C2 4.01 2 3.02 2 2 C1.34 1.34 0.68 0.68 0 0 Z " fill="#1C4153" transform="translate(134,74)"/>
<path d="M0 0 C2.64 0 5.28 0 8 0 C8 0.99 8 1.98 8 3 C8.89203125 3.19335938 9.7840625 3.38671875 10.703125 3.5859375 C11.87359375 3.84632812 13.0440625 4.10671875 14.25 4.375 C15.41015625 4.63023438 16.5703125 4.88546875 17.765625 5.1484375 C20.46052401 5.85796405 22.59525832 6.63096389 25 8 C24.34 10.31 23.68 12.62 23 15 C25.475 15.99 25.475 15.99 28 17 C28 17.99 28 18.98 28 20 C26.58222818 19.91214662 25.16570961 19.80395353 23.75 19.6875 C22.96109375 19.62949219 22.1721875 19.57148437 21.359375 19.51171875 C19 19 19 19 17.1484375 17.4921875 C14.09731449 15.37304389 11.54980468 15.5564133 7.875 15.4375 C1.2088267 15.2088267 1.2088267 15.2088267 -1 13 C-3.65537372 12.43479997 -6.29144713 12.26211802 -9 12 C-9.75 10.25 -9.75 10.25 -10 8 C-8.3125 5.75 -8.3125 5.75 -6 4 C-4.68 4 -3.36 4 -2 4 C-1.34 2.68 -0.68 1.36 0 0 Z " fill="#143B55" transform="translate(50,62)"/>
<path d="M0 0 C0 0.66 0 1.32 0 2 C0.7425 2.103125 1.485 2.20625 2.25 2.3125 C5.17014018 3.04253504 6.73187554 4.06789398 9 6 C8.67 7.32 8.34 8.64 8 10 C2.555 11.485 2.555 11.485 -3 13 C-3 12.34 -3 11.68 -3 11 C-4.051875 10.62875 -4.051875 10.62875 -5.125 10.25 C-8 9 -8 9 -10.75 6.875 C-14.927163 4.46509827 -18.27595913 4.42366701 -23 5 C-23.99 5.495 -23.99 5.495 -25 6 C-29.67181016 6.41527201 -32.17508513 5.69993991 -36 3 C-35.67 2.01 -35.34 1.02 -35 0 C-34.030625 -0.12375 -33.06125 -0.2475 -32.0625 -0.375 C-31.051875 -0.58125 -30.04125 -0.7875 -29 -1 C-28.67 -1.66 -28.34 -2.32 -28 -3 C-18.29975991 -7.77394015 -9.06449234 -4.53224617 0 0 Z " fill="#81CD37" transform="translate(194,44)"/>
<path d="M0 0 C2.56101208 1.01373395 4.76289642 2.30350916 7.0625 3.81640625 C8.32933219 4.55250243 9.60038519 5.28137011 10.875 6.00390625 C11.926875 6.60203125 12.97875 7.20015625 14.0625 7.81640625 C14.0625 9.13640625 14.0625 10.45640625 14.0625 11.81640625 C8.6175 13.30140625 8.6175 13.30140625 3.0625 14.81640625 C3.0625 14.15640625 3.0625 13.49640625 3.0625 12.81640625 C2.010625 12.44515625 2.010625 12.44515625 0.9375 12.06640625 C-1.9375 10.81640625 -1.9375 10.81640625 -4.625 8.69140625 C-10.26285365 5.50016833 -16.07299105 6.51748151 -22.3125 7.37890625 C-25.37573013 7.74860644 -27.10855068 7.87726225 -29.9375 6.81640625 C-28.64802632 1.29009046 -28.64802632 1.29009046 -26.25 -0.30859375 C-23.38733324 -1.39176496 -20.98236649 -1.18359375 -17.9375 -1.18359375 C-17.298125 -1.53421875 -16.65875 -1.88484375 -16 -2.24609375 C-11.03294121 -4.50384774 -4.89618219 -1.71200965 0 0 Z " fill="#5BB942" transform="translate(204.9375,61.18359375)"/>
<path d="M0 0 C0.33 0 0.66 0 1 0 C1.01458252 0.78125244 1.02916504 1.56250488 1.04418945 2.36743164 C1.11900498 5.93293368 1.21555633 9.49753377 1.3125 13.0625 C1.33505859 14.29162109 1.35761719 15.52074219 1.38085938 16.78710938 C1.41630859 17.98271484 1.45175781 19.17832031 1.48828125 20.41015625 C1.51446533 21.50465088 1.54064941 22.59914551 1.56762695 23.72680664 C2.07236003 27.54778705 3.48367071 30.46681964 5 34 C5.63183594 37.70043945 5.63183594 37.70043945 5.984375 41.61328125 C6.04908997 42.30890671 6.11380493 43.00453217 6.18048096 43.72123718 C6.31351638 45.17702573 6.44095837 46.63333554 6.56298828 48.09008789 C6.75106549 50.32516211 6.95813168 52.55788939 7.16796875 54.79101562 C8.14737537 65.70524927 8.14737537 65.70524927 7 68 C4.0280615 66.87548273 1.66559313 65.77706209 -1 64 C-1.35644531 61.45092773 -1.35644531 61.45092773 -1.328125 58.18359375 C-1.32361328 56.95906494 -1.31910156 55.73453613 -1.31445312 54.47290039 C-1.29351225 53.12775836 -1.27201402 51.7826249 -1.25 50.4375 C-1.23802737 49.06177516 -1.22697333 47.68604204 -1.21679688 46.31030273 C-1.07297959 30.86892098 -0.55826976 15.43111058 0 0 Z " fill="#0E435B" transform="translate(124,118)"/>
<path d="M0 0 C0 0.66 0 1.32 0 2 C0.763125 2.144375 1.52625 2.28875 2.3125 2.4375 C5 3 5 3 8 4 C8 4.66 8 5.32 8 6 C8.969375 5.814375 9.93875 5.62875 10.9375 5.4375 C12.4534375 5.2209375 12.4534375 5.2209375 14 5 C14.33 5.33 14.66 5.66 15 6 C17.48222341 6.28484531 19.96468855 6.44806553 22.45703125 6.62109375 C25.06631014 7.00988031 26.67834195 7.80040065 29 9 C30.66223017 9.35479535 32.32968748 9.6854448 34 10 C36.27756857 10.6648471 38.5482861 11.35350373 40.8125 12.0625 C42.55466797 12.60583984 42.55466797 12.60583984 44.33203125 13.16015625 C45.65267578 13.57587891 45.65267578 13.57587891 47 14 C45.37280823 17.25438355 42.26919189 17.70359632 39 19 C38.01 19.33 37.02 19.66 36 20 C35.505 18.515 35.505 18.515 35 17 C32.93502613 16.01296048 32.93502613 16.01296048 30.5 15.375 C26.07174888 14.07174888 26.07174888 14.07174888 25 13 C22.78619867 12.46563416 20.55863947 12.03715388 18.32421875 11.59765625 C15.9977645 10.99942516 14.10157401 10.14937343 12 9 C12 8.34 12 7.68 12 7 C10.92621094 7.13019531 9.85242188 7.26039062 8.74609375 7.39453125 C-4.21551544 8.73355302 -4.21551544 8.73355302 -8.5 5.5625 C-9.325 4.716875 -10.15 3.87125 -11 3 C-7.65817252 -1.0165182 -4.96805907 -0.24433077 0 0 Z " fill="#066F5F" transform="translate(117,28)"/>
<path d="M0 0 C2.01225028 1.03612887 3.51588445 2.21904824 5.23046875 3.6875 C8.41507222 6.04958999 12.21981781 6.94566347 16 8 C15.1640625 9.953125 15.1640625 9.953125 14 12 C6.40280938 14.17062589 -2.96000262 13.81830367 -10 10 C-11.5625 6.4375 -11.5625 6.4375 -12 3 C-12.33 2.34 -12.66 1.68 -13 1 C-9.02910419 -0.9854479 -4.31656572 -0.54632473 0 0 Z " fill="#0D635F" transform="translate(88,39)"/>
<path d="M0 0 C4.01120142 0.81861253 5.47890345 2.52468414 8.0625 5.625 C9.58741998 8.67483996 9.29812548 11.2673369 9.0625 14.625 C7.5625 16.5625 7.5625 16.5625 6.0625 17.625 C2.06749382 16.2552836 -0.73759492 14.36777578 -3.9375 11.625 C-3.15375 12.40875 -2.37 13.1925 -1.5625 14 C-0.02083333 15.54166667 1.52083333 17.08333333 3.0625 18.625 C-0.35506151 18.93568741 -2.33856977 18.9875104 -5.3125 17.1875 C-7.72343862 13.38563525 -7.70121895 10.00469436 -6.9375 5.625 C-4.99875729 1.97121566 -4.05772226 0.86334516 0 0 Z " fill="#EE7937" transform="translate(127.9375,223.375)"/>
<path d="M0 0 C-0.33 0.66 -0.66 1.32 -1 2 C-0.01 2 0.98 2 2 2 C1.67 2.99 1.34 3.98 1 5 C0.484375 4.649375 -0.03125 4.29875 -0.5625 3.9375 C-4.61215038 2.37994216 -8.35598451 3.6711969 -12.5 4.5 C-15.65049689 5.13009938 -18.81763017 5.56320414 -22 6 C-22.33 6.99 -22.66 7.98 -23 9 C-28.61615594 13.40315529 -34.65908262 13.50852304 -41.5 13.25 C-42.4178125 13.23195313 -43.335625 13.21390625 -44.28125 13.1953125 C-46.52196092 13.14863102 -48.76039799 13.08318522 -51 13 C-50.67 12.34 -50.34 11.68 -50 11 C-48.1661944 10.46599581 -46.30565761 10.02248034 -44.4375 9.625 C-36.07005458 7.68176296 -36.07005458 7.68176296 -29 3 C-26.68182911 2.67902249 -24.36220643 2.48779044 -22.03125 2.28125 C-20.00819407 2.20934163 -20.00819407 2.20934163 -19 1 C-17.04583843 0.79000055 -15.08599701 0.63167366 -13.125 0.5 C-1.02045305 -0.31669232 -1.02045305 -0.31669232 0 0 Z " fill="#DFE2E1" transform="translate(199,56)"/>
<path d="M0 0 C1.18038719 1.53131311 2.36039971 3.06294514 3.53125 4.6015625 C6.22786039 7.16907984 9.41148114 7.39177646 13 8 C13 8.33 13 8.66 13 9 C11.22950311 9.05410687 9.45853151 9.09284119 7.6875 9.125 C6.20830078 9.15980469 6.20830078 9.15980469 4.69921875 9.1953125 C2 9 2 9 -1 7 C-4.82748905 7.18232592 -4.82748905 7.18232592 -8 9 C-10.69654854 9.07319621 -13.36691458 9.09242537 -16.0625 9.0625 C-17.20041992 9.05573242 -17.20041992 9.05573242 -18.36132812 9.04882812 C-20.24091871 9.0370068 -22.12046899 9.01907078 -24 9 C-24 7.68 -24 6.36 -24 5 C-22.906875 4.731875 -21.81375 4.46375 -20.6875 4.1875 C-17.12021939 3.35541556 -17.12021939 3.35541556 -15.54296875 1.5078125 C-11.598819 -2.34647054 -4.5084257 -3.00561713 0 0 Z " fill="#047E52" transform="translate(132,39)"/>
<path d="M0 0 C0.66 0.99 1.32 1.98 2 3 C-6.45200904 6.22713072 -15.1078559 7.56051399 -24 9 C-20.37 10.32 -16.74 11.64 -13 13 C-13.33 13.99 -13.66 14.98 -14 16 C-20.59229145 16.7013076 -24.49376557 14.49602186 -30 11 C-30 9.35 -30 7.7 -30 6 C-30.66 5.67 -31.32 5.34 -32 5 C-31.35450195 4.88406494 -30.70900391 4.76812988 -30.04394531 4.64868164 C-27.11237767 4.12134733 -24.18118703 3.59194566 -21.25 3.0625 C-20.23421875 2.88009766 -19.2184375 2.69769531 -18.171875 2.50976562 C-17.1921875 2.33251953 -16.2125 2.15527344 -15.203125 1.97265625 C-14.30239258 1.81031494 -13.40166016 1.64797363 -12.47363281 1.48071289 C-10.93035853 1.18080102 -9.39316273 0.84467359 -7.87011719 0.45483398 C-5.15791946 -0.20480366 -2.77483589 -0.24129008 0 0 Z " fill="#1C3D55" transform="translate(123,75)"/>
<path d="M0 0 C0.61786377 0.06566162 1.23572754 0.13132324 1.87231445 0.19897461 C9.97029479 1.00279382 18.05577474 1.31485385 26.1875 1.5625 C27.53451468 1.60582646 28.88152001 1.64944448 30.22851562 1.69335938 C33.48559727 1.79842652 36.74274197 1.90057834 40 2 C40 5 40 5 38.8984375 6.66796875 C32.66735712 11.03998194 20.09294578 7.86629229 12.99609375 6.6328125 C4.28179834 4.79224424 4.28179834 4.79224424 1 3 C0.67 2.01 0.34 1.02 0 0 Z " fill="#D6DCDC" transform="translate(134,71)"/>
<path d="M0 0 C6.625 0.75 6.625 0.75 10 3 C10.1875 5.625 10.1875 5.625 10 8 C10.99 7.01 11.98 6.02 13 5 C14.485 5.495 14.485 5.495 16 6 C15.39249194 10.86006452 14.48878322 15.72947425 12 20 C8.8125 22 8.8125 22 6 23 C6 23.33 6 23.66 6 24 C8.64 24.33 11.28 24.66 14 25 C14 25.33 14 25.66 14 26 C9.97918212 26.02921779 5.95839186 26.04687188 1.9375 26.0625 C0.2369043 26.07506836 0.2369043 26.07506836 -1.49804688 26.08789062 C-7.10878867 26.10424847 -12.47649331 26.01812097 -18 25 C-18 24.67 -18 24.34 -18 24 C-12.39 24 -6.78 24 -1 24 C-1 23.34 -1 22.68 -1 22 C-0.01 21.67 0.98 21.34 2 21 C0.02 19.35 -1.96 17.7 -4 16 C-3.67 15.34 -3.34 14.68 -3 14 C-0.36 15.98 2.28 17.96 5 20 C6.32 19.34 7.64 18.68 9 18 C9.29130183 13.04786889 9.30895436 9.84265668 6 6 C3.70325094 4.72913219 1.48730887 3.89167677 -1 3 C-0.67 2.01 -0.34 1.02 0 0 Z " fill="#A13645" transform="translate(127,220)"/>
<path d="M0 0 C0.33 0 0.66 0 1 0 C1 14.52 1 29.04 1 44 C-0.65 44.66 -2.3 45.32 -4 46 C-6.38297872 24.46808511 -6.38297872 24.46808511 -6 14 C-5.01 14.495 -5.01 14.495 -4 15 C-4 15.99 -4 16.98 -4 18 C-3.34 18.33 -2.68 18.66 -2 19 C-0.3501993 15.70039859 -0.61741639 12.00872116 -0.4375 8.375 C-0.37272461 7.17230469 -0.37272461 7.17230469 -0.30664062 5.9453125 C-0.20048543 3.9637489 -0.09973145 1.98189729 0 0 Z " fill="#1D8868" transform="translate(135,138)"/>
<path d="M0 0 C0 0.99 0 1.98 0 3 C-16.28836005 7.55989246 -16.28836005 7.55989246 -23 8 C-23.9796875 8.07476562 -24.959375 8.14953125 -25.96875 8.2265625 C-33.99634611 8.59676718 -33.99634611 8.59676718 -36.87890625 6.8828125 C-38.25 5.5 -38.25 5.5 -40 3 C-39.34 2.34 -38.68 1.68 -38 1 C-35.99178138 1.27958732 -33.99275533 1.62578442 -32 2 C-29.23720833 2.11739135 -26.51187892 2.18996927 -23.75 2.1875 C-23.00073242 2.18814453 -22.25146484 2.18878906 -21.47949219 2.18945312 C-16.51918374 2.14231412 -11.89902334 1.68607799 -7.078125 0.4375 C-4.67739603 -0.06791662 -2.44641033 -0.06843106 0 0 Z " fill="#DADDDD" transform="translate(124,71)"/>
<path d="M0 0 C0 3.3 0 6.6 0 10 C-17.85649203 10.738041 -17.85649203 10.738041 -26 6 C-26 5.67 -26 5.34 -26 5 C-25.07719238 4.82609741 -25.07719238 4.82609741 -24.13574219 4.64868164 C-21.34026415 4.12116829 -18.54513024 3.59185297 -15.75 3.0625 C-14.78191406 2.88009766 -13.81382813 2.69769531 -12.81640625 2.50976562 C-11.88183594 2.33251953 -10.94726562 2.15527344 -9.984375 1.97265625 C-8.69611816 1.72914429 -8.69611816 1.72914429 -7.38183594 1.48071289 C-0.04520061 0 -0.04520061 0 0 0 Z " fill="#D8DDDE" transform="translate(124,78)"/>
<path d="M0 0 C0.99 0.33 1.98 0.66 3 1 C4 4 4 4 2.515625 7.15234375 C1.77542349 8.42292454 1.0190808 9.68418896 0.25 10.9375 C-0.14888428 11.59758057 -0.54776855 12.25766113 -0.95874023 12.93774414 C-5.19097962 19.69681488 -10.39015461 25.36918322 -16 31 C-16.99 30.34 -17.98 29.68 -19 29 C-17.35248007 25.21343486 -14.87422031 22.19427332 -12.3125 19 C-7.5656652 12.97703215 -3.66997096 6.74448306 0 0 Z " fill="#E0DFDF" transform="translate(233,182)"/>
<path d="M0 0 C3 0 3 0 6 2 C6 2.66 6 3.32 6 4 C6.33 4.99 6.66 5.98 7 7 C9.64 7.33 12.28 7.66 15 8 C14.34 8.66 13.68 9.32 13 10 C13.3185177 12.10820797 13.3185177 12.10820797 14 14 C10.83578519 14 7.71999704 13.83287154 4.5625 13.625 C3.42941406 13.55539063 2.29632813 13.48578125 1.12890625 13.4140625 C-1.75210319 13.03280532 -3.54101434 12.48626651 -6 11 C-5.01 10.34 -4.02 9.68 -3 9 C-4.98 8.01 -6.96 7.02 -9 6 C-6.03312999 4.35173889 -3.34373475 3.55728913 0 3 C0 2.01 0 1.02 0 0 Z " fill="#265566" transform="translate(80,71)"/>
<path d="M0 0 C1.02738281 0.27714844 2.05476562 0.55429688 3.11328125 0.83984375 C11.07619104 2.93838622 18.73088536 4.64961379 27 5 C26 7 26 7 24.0234375 7.8515625 C15.86073068 10.23536184 8.43610852 10.30738857 0 10 C0 6.7 0 3.4 0 0 Z " fill="#DADEDD" transform="translate(134,78)"/>
<path d="M0 0 C0.99 0.66 1.98 1.32 3 2 C3.1875 4.625 3.1875 4.625 3 7 C4.32 7.33 5.64 7.66 7 8 C7 8.66 7 9.32 7 10 C7.66 10.33 8.32 10.66 9 11 C7.58344207 11.0272415 6.16672955 11.04650467 4.75 11.0625 C3.56664062 11.07990234 3.56664062 11.07990234 2.359375 11.09765625 C0.0838619 11.00347111 -1.80722776 10.57537619 -4 10 C-4.99 10 -5.98 10 -7 10 C-7 9.34 -7 8.68 -7 8 C-7.5775 7.855625 -8.155 7.71125 -8.75 7.5625 C-10.83333333 7.04166667 -12.91666667 6.52083333 -15 6 C-15 5.34 -15 4.68 -15 4 C-16.65 4 -18.3 4 -20 4 C-20 3.67 -20 3.34 -20 3 C-18.75283203 2.92652344 -18.75283203 2.92652344 -17.48046875 2.8515625 C-16.39378906 2.77679687 -15.30710937 2.70203125 -14.1875 2.625 C-13.10855469 2.55539063 -12.02960938 2.48578125 -10.91796875 2.4140625 C-6.60269523 1.80172114 -4.5827165 -0.45827165 0 0 Z " fill="#37A441" transform="translate(132,24)"/>
<path d="M0 0 C0.66 0.99 1.32 1.98 2 3 C4.05925139 3.72382467 4.05925139 3.72382467 6 4 C6 3.34 6 2.68 6 2 C7.65 1.34 9.3 0.68 11 0 C11.66 0.66 12.32 1.32 13 2 C12.360625 2.12375 11.72125 2.2475 11.0625 2.375 C10.381875 2.58125 9.70125 2.7875 9 3 C8.67 3.66 8.34 4.32 8 5 C9.32 5.33 10.64 5.66 12 6 C11.05125 6.268125 10.1025 6.53625 9.125 6.8125 C5.74732727 7.74986588 5.74732727 7.74986588 4 11 C3.6842006 13.18186947 3.6842006 13.18186947 3.75 15.5 C3.74484375 16.2734375 3.7396875 17.046875 3.734375 17.84375 C3.87261938 20.29513844 3.87261938 20.29513844 6 23 C1.1565954 22.58485103 -0.81587829 20.53791301 -4 17 C-4.33 16.67 -4.66 16.34 -5 16 C-5.04092937 13.66702567 -5.04241723 11.33294775 -5 9 C-4.01 9.495 -4.01 9.495 -3 10 C-3 10.66 -3 11.32 -3 12 C-2.34 12 -1.68 12 -1 12 C-1.01160156 11.21753906 -1.02320312 10.43507812 -1.03515625 9.62890625 C-1.04417969 8.61699219 -1.05320312 7.60507813 -1.0625 6.5625 C-1.07410156 5.55316406 -1.08570312 4.54382813 -1.09765625 3.50390625 C-1 1 -1 1 0 0 Z " fill="#8B3946" transform="translate(118,218)"/>
<path d="M0 0 C6.37494136 0.14369745 10.51011628 0.97019072 15.70703125 4.65625 C20.3886827 7.39984131 25.79476034 8.57966784 31 10 C31 10.33 31 10.66 31 11 C10.16906549 12.17145847 10.16906549 12.17145847 3.55859375 6.60546875 C3.04425781 6.07566406 2.52992187 5.54585937 2 5 C1.43410156 4.43925781 0.86820312 3.87851562 0.28515625 3.30078125 C-0.13894531 2.87152344 -0.56304687 2.44226562 -1 2 C-0.67 1.34 -0.34 0.68 0 0 Z " fill="#E1E2E2" transform="translate(79,58)"/>
<path d="M0 0 C0.57073242 0.32597168 1.14146484 0.65194336 1.72949219 0.98779297 C4.16607646 2.07403796 5.68281107 2.2331027 8.328125 2.1953125 C9.12734375 2.18886719 9.9265625 2.18242188 10.75 2.17578125 C11.575 2.15902344 12.4 2.14226562 13.25 2.125 C14.51070312 2.11146484 14.51070312 2.11146484 15.796875 2.09765625 C17.86470604 2.07415817 19.93238995 2.03828908 22 2 C22 1.67 22 1.34 22 1 C24.31 1 26.62 1 29 1 C27.6875 3.9375 27.6875 3.9375 26 7 C22.19014895 8.26995035 18.59390381 8.18414789 14.625 8.1875 C13.86960937 8.19974609 13.11421875 8.21199219 12.3359375 8.22460938 C8.09652181 8.23572672 4.87019821 7.95051822 1 6 C1 5.01 1 4.02 1 3 C0.34 2.67 -0.32 2.34 -1 2 C-0.67 1.34 -0.34 0.68 0 0 Z " fill="#3B596C" transform="translate(86,66)"/>
<path d="M0 0 C1.67523395 1.32255312 3.34106818 2.65705519 5 4 C8.96378401 5.91111015 12.64411446 7.34001734 17 8 C17 8.33 17 8.66 17 9 C6.769241 9.45209573 -3.82264615 9.06184985 -13 4 C-13 3.34 -13 2.68 -13 2 C-4.39217088 -1.78060981 -4.39217088 -1.78060981 0 0 Z " fill="#D5D8D8" transform="translate(107,55)"/>
<path d="M0 0 C0.56460938 0.14566406 1.12921875 0.29132812 1.7109375 0.44140625 C4.780325 1.19042061 7.87735036 1.78970879 10.9765625 2.40234375 C13 3 13 3 15 5 C16.96690374 5.67292501 16.96690374 5.67292501 19.125 6.125 C20.40375 6.41375 21.6825 6.7025 23 7 C23.33 8.32 23.66 9.64 24 11 C25.65 10.01 27.3 9.02 29 8 C29 8.66 29 9.32 29 10 C29.66 10.33 30.32 10.66 31 11 C26.16739487 13.0037631 23.09630102 13.10419855 18 12 C16.76636719 11.73703125 16.76636719 11.73703125 15.5078125 11.46875 C9.31733641 9.92572332 6.60675001 8.24618183 3 3 C2.01709032 1.98319689 1.02665213 0.97261781 0 0 Z " fill="#39A14C" transform="translate(129,37)"/>
<path d="M0 0 C1.010625 0.309375 2.02125 0.61875 3.0625 0.9375 C4.35398406 1.29233198 5.64565175 1.64649625 6.9375 2 C7.96875 2.309375 9 2.61875 10.0625 2.9375 C6.07073859 7.84286877 -0.95376734 8.92586174 -6.9375 9.9375 C-11.94009522 10.35304001 -16.92785933 10.19008692 -21.9375 9.9375 C-21.9375 9.6075 -21.9375 9.2775 -21.9375 8.9375 C-21.06867188 8.70675781 -20.19984375 8.47601563 -19.3046875 8.23828125 C-11.8065388 6.33343574 -11.8065388 6.33343574 -5.5 2.125 C-2.9375 -0.0625 -2.9375 -0.0625 0 0 Z " fill="#D8DCDB" transform="translate(155.9375,54.0625)"/>
<path d="M0 0 C0.99 0.33 1.98 0.66 3 1 C3 1.99 3 2.98 3 4 C3.74765625 3.84402344 4.4953125 3.68804687 5.265625 3.52734375 C6.74289063 3.23537109 6.74289063 3.23537109 8.25 2.9375 C9.71179688 2.64166016 9.71179688 2.64166016 11.203125 2.33984375 C13.868119 2.01602465 15.48871723 2.14496801 18 3 C15.38491536 6.92262695 13.28679118 7.20419503 8.88671875 8.4375 C4.25001406 9.34099861 -0.29913159 9.24129933 -5 9 C-4.01 8.34 -3.02 7.68 -2 7 C-3.58272601 5.41727399 -5.38034003 5.65264253 -7.5625 5.4375 C-8.38878906 5.35371094 -9.21507812 5.26992187 -10.06640625 5.18359375 C-10.70449219 5.12300781 -11.34257812 5.06242187 -12 5 C-12 4.67 -12 4.34 -12 4 C-11.38511719 3.96261719 -10.77023438 3.92523438 -10.13671875 3.88671875 C-9.32847656 3.82097656 -8.52023438 3.75523438 -7.6875 3.6875 C-6.88699219 3.62949219 -6.08648437 3.57148437 -5.26171875 3.51171875 C-2.63727666 2.91793306 -1.69179328 2.04219706 0 0 Z " fill="#255361" transform="translate(174,75)"/>
<path d="M0 0 C0.99 0.66 1.98 1.32 3 2 C3 1.34 3 0.68 3 0 C3.99 0 4.98 0 6 0 C6 1.32 6 2.64 6 4 C8.475 4.495 8.475 4.495 11 5 C11 5.33 11 5.66 11 6 C3.65485589 7.50382815 -2.5810058 8.23649903 -10 7 C-8.7082768 1.46404342 -8.7082768 1.46404342 -6.1875 -0.1875 C-3.58024881 -1.15590758 -2.56320511 -0.99220843 0 0 Z " fill="#2B9C5A" transform="translate(185,61)"/>
<path d="M0 0 C1.77049689 -0.05410687 3.54146849 -0.09284119 5.3125 -0.125 C6.29863281 -0.14820313 7.28476563 -0.17140625 8.30078125 -0.1953125 C11 0 11 0 14 2 C15.19625 2.165 16.3925 2.33 17.625 2.5 C19.295625 2.7475 19.295625 2.7475 21 3 C21.33 3.66 21.66 4.32 22 5 C16.375 7 16.375 7 13 7 C11.32766542 7.7541901 9.65544781 8.5086433 7.984375 9.265625 C4.70730158 10.4784002 1.46982148 10.69562969 -2 11 C-2 10.34 -2 9.68 -2 9 C-0.02 8.67 1.96 8.34 4 8 C4.33 5.69 4.66 3.38 5 1 C3.35 1 1.7 1 0 1 C0 0.67 0 0.34 0 0 Z " fill="#317B72" transform="translate(136,48)"/>
<path d="M0 0 C1.98567708 0.09765625 3.97135417 0.1953125 5.95703125 0.29296875 C5.95703125 0.95296875 5.95703125 1.61296875 5.95703125 2.29296875 C6.72015625 2.43734375 7.48328125 2.58171875 8.26953125 2.73046875 C10.95703125 3.29296875 10.95703125 3.29296875 13.95703125 4.29296875 C13.95703125 4.95296875 13.95703125 5.61296875 13.95703125 6.29296875 C15.93703125 5.96296875 17.91703125 5.63296875 19.95703125 5.29296875 C20.28703125 5.95296875 20.61703125 6.61296875 20.95703125 7.29296875 C17.93623476 7.5977644 14.92040505 7.86241772 11.89453125 8.10546875 C10.62319336 8.23985352 10.62319336 8.23985352 9.32617188 8.37695312 C4.63095588 8.72138982 1.74180838 8.59459527 -2.1640625 5.8046875 C-3.11410156 4.97582031 -4.06414062 4.14695312 -5.04296875 3.29296875 C-2.29833984 0.32958984 -2.29833984 0.32958984 0 0 Z " fill="#07784D" transform="translate(111.04296875,27.70703125)"/>
<path d="M0 0 C0.99 0.33 1.98 0.66 3 1 C-2.0022779 15.78132118 -2.0022779 15.78132118 -6 22 C-6.99 21.67 -7.98 21.34 -9 21 C-8.38465894 16.48749888 -7.24252899 12.50459139 -5.625 8.25 C-4.99464844 6.55617187 -4.99464844 6.55617187 -4.3515625 4.828125 C-3 2 -3 2 0 0 Z " fill="#E8E5E1" transform="translate(243,163)"/>
<path d="M0 0 C1.32 1.32 2.64 2.64 4 4 C2.27563834 5.60960555 0.54586672 7.21264034 -1.1875 8.8125 C-2.15042969 9.70582031 -3.11335937 10.59914062 -4.10546875 11.51953125 C-6.64644472 13.69702078 -9.07768383 15.39192474 -12 17 C-12.66 16.34 -13.32 15.68 -14 15 C-14 14.01 -14 13.02 -14 12 C-11.953125 10.09765625 -11.953125 10.09765625 -9.25 8.0625 C-5.92945814 5.54296605 -2.88489206 3.0129597 0 0 Z " fill="#E0DCDF" transform="translate(213,210)"/>
<path d="M0 0 C-0.33 1.65 -0.66 3.3 -1 5 C-6.31531689 6.77410051 -10.85618805 7.2577668 -16.4375 7.125 C-17.16904297 7.11597656 -17.90058594 7.10695313 -18.65429688 7.09765625 C-20.43634298 7.07436153 -22.21821759 7.0385019 -24 7 C-23.67 6.01 -23.34 5.02 -23 4 C-21.81921875 3.79503906 -20.6384375 3.59007813 -19.421875 3.37890625 C-17.86457003 3.10684695 -16.3072791 2.83470732 -14.75 2.5625 C-13.97269531 2.42779297 -13.19539062 2.29308594 -12.39453125 2.15429688 C-11.64042969 2.02216797 -10.88632813 1.89003906 -10.109375 1.75390625 C-9.07248535 1.57323608 -9.07248535 1.57323608 -8.01464844 1.38891602 C-6.62339366 1.12034247 -5.24062691 0.80511279 -3.86816406 0.45288086 C-2 0 -2 0 0 0 Z " fill="#1A445B" transform="translate(159,85)"/>
<path d="M0 0 C0.556875 0.226875 1.11375 0.45375 1.6875 0.6875 C2.0175 2.3375 2.3475 3.9875 2.6875 5.6875 C3.6775 6.0175 4.6675 6.3475 5.6875 6.6875 C-6.04097682 9.28352649 -6.04097682 9.28352649 -10.3125 8.6875 C-13.1875 6.6875 -13.1875 6.6875 -15.3125 4.6875 C-14.095625 4.419375 -12.87875 4.15125 -11.625 3.875 C-8.80861055 3.18952955 -7.07906821 2.54425777 -4.5625 1 C-2.3125 -0.3125 -2.3125 -0.3125 0 0 Z " fill="#6FC638" transform="translate(173.3125,41.3125)"/>
<path d="M0 0 C2.64 0 5.28 0 8 0 C8 1.32 8 2.64 8 4 C11.63 5.32 15.26 6.64 19 8 C18.67 8.99 18.34 9.98 18 11 C11.40770855 11.7013076 7.50623443 9.49602186 2 6 C2 4.35 2 2.7 2 1 C1.34 0.67 0.68 0.34 0 0 Z " fill="#163651" transform="translate(91,80)"/>
<path d="M0 0 C0.33 1.32 0.66 2.64 1 4 C-0.60387267 5.1254191 -2.20810916 6.25031972 -3.8125 7.375 C-4.70582031 8.00148437 -5.59914062 8.62796875 -6.51953125 9.2734375 C-11.87330317 13 -11.87330317 13 -15 13 C-14.11050291 9.26199439 -13.4575887 7.38273623 -10.46875 4.8828125 C-9.4890625 4.30273438 -8.509375 3.72265625 -7.5 3.125 C-6.5203125 2.52945313 -5.540625 1.93390625 -4.53125 1.3203125 C-2 0 -2 0 0 0 Z " fill="#E5E2E4" transform="translate(200,223)"/>
<path d="M0 0 C-1.83863704 4.77024165 -5.01325808 5.98691833 -9.4453125 8.09375 C-12.63293757 9.22452831 -14.81039488 9.0911807 -18 8 C-18 7.01 -18 6.02 -18 5 C-17.15695313 4.72285156 -16.31390625 4.44570313 -15.4453125 4.16015625 C-14.34960938 3.79792969 -13.25390625 3.43570313 -12.125 3.0625 C-11.03445312 2.70285156 -9.94390625 2.34320313 -8.8203125 1.97265625 C-3.10040161 0 -3.10040161 0 0 0 Z " fill="#274D60" transform="translate(171,57)"/>
<path d="M0 0 C0.99 0.495 0.99 0.495 2 1 C2 1.66 2 2.32 2 3 C2.66 3 3.32 3 4 3 C4.33 2.34 4.66 1.68 5 1 C5.66 1.33 6.32 1.66 7 2 C7.22889676 3.99467179 7.45469744 5.98988838 7.6484375 7.98828125 C8.10290897 10.588868 9.19012898 12.11143894 11 14 C6.1565954 13.58485103 4.18412171 11.53791301 1 8 C0.67 7.67 0.34 7.34 0 7 C-0.04092937 4.66702567 -0.04241723 2.33294775 0 0 Z " fill="#902D4D" transform="translate(113,227)"/>
<path d="M0 0 C0.33 0.99 0.66 1.98 1 3 C-0.65 3.33 -2.3 3.66 -4 4 C-4 4.66 -4 5.32 -4 6 C-2.68 5.67 -1.36 5.34 0 5 C0.66 6.65 1.32 8.3 2 10 C1.34 9.67 0.68 9.34 0 9 C-2.55985218 8.7275833 -5.11929936 8.55435019 -7.6875 8.37890625 C-10 8 -10 8 -12 6 C-14.65537372 5.43479997 -17.29144713 5.26211802 -20 5 C-20 4.67 -20 4.34 -20 4 C-19.05898437 3.96261719 -18.11796875 3.92523438 -17.1484375 3.88671875 C-15.90320313 3.82097656 -14.65796875 3.75523438 -13.375 3.6875 C-11.53035156 3.60048828 -11.53035156 3.60048828 -9.6484375 3.51171875 C-5.8576575 2.98003547 -3.29970329 1.89352204 0 0 Z " fill="#2E7373" transform="translate(174,65)"/>
<path d="M0 0 C1.26328125 0.02707031 2.5265625 0.05414063 3.828125 0.08203125 C4.79234375 0.11683594 5.7565625 0.15164062 6.75 0.1875 C6.75 0.5175 6.75 0.8475 6.75 1.1875 C5.1 1.5175 3.45 1.8475 1.75 2.1875 C1.75 2.5175 1.75 2.8475 1.75 3.1875 C4.72 3.6825 4.72 3.6825 7.75 4.1875 C7.75 7.1575 7.75 10.1275 7.75 13.1875 C7.42 13.1875 7.09 13.1875 6.75 13.1875 C6.75 10.5475 6.75 7.9075 6.75 5.1875 C5.78578125 5.21070312 4.8215625 5.23390625 3.828125 5.2578125 C2.56484375 5.27585937 1.3015625 5.29390625 0 5.3125 C-1.25296875 5.33570312 -2.5059375 5.35890625 -3.796875 5.3828125 C-6.97820492 5.20287302 -8.61521896 4.87748582 -11.25 3.1875 C-7.67487951 -0.25219926 -4.83224625 -0.13422906 0 0 Z " fill="#32536A" transform="translate(117.25,87.8125)"/>
<path d="M0 0 C2.83914825 3.37993839 4.60397523 6.81192568 6 11 C5.1875 13.9375 5.1875 13.9375 4 16 C0.64883798 12.18660874 -1.3025818 8.7349034 -3 4 C-2.67 3.34 -2.34 2.68 -2 2 C-1.34 2 -0.68 2 0 2 C0 1.34 0 0.68 0 0 Z " fill="#DCD8D8" transform="translate(24,179)"/>
<path d="M0 0 C0.66 0.33 1.32 0.66 2 1 C0.25274889 5.24332412 -1.85940242 6.36680113 -5.890625 8.25 C-8.66712882 9.23720136 -11.08487068 9.29151293 -14 9 C-13.8046875 7.1015625 -13.8046875 7.1015625 -13 5 C-10.8203125 4.0234375 -10.8203125 4.0234375 -8.125 3.375 C-4.79426712 2.54959972 -2.90928057 1.93952038 0 0 Z " fill="#1F4A5A" transform="translate(150,53)"/>
<path d="M0 0 C4.24404412 3.88026891 7.10917547 8.04254346 10 13 C7 14 7 14 4.5 12.875 C1.67017064 10.75262798 0.36582057 9.26279357 -1 6 C-0.6875 2.6875 -0.6875 2.6875 0 0 Z " fill="#E7E5E5" transform="translate(29,190)"/>
<path d="M0 0 C4.21878192 -0.19622241 7.17010894 0.19769832 11 2 C9.37280823 5.25438355 6.26919189 5.70359632 3 7 C2.01 7.33 1.02 7.66 0 8 C-0.33 7.01 -0.66 6.02 -1 5 C-1.66 4.67 -2.32 4.34 -3 4 C-3 3.34 -3 2.68 -3 2 C-2.01 2 -1.02 2 0 2 C0 1.34 0 0.68 0 0 Z " fill="#0D706D" transform="translate(153,40)"/>
<path d="M0 0 C4.62 0.99 9.24 1.98 14 3 C14 3.66 14 4.32 14 5 C12.68 5 11.36 5 10 5 C10 5.66 10 6.32 10 7 C5.6822542 6.49202991 1.96697886 5.80317221 -2 4 C-1.34 2.68 -0.68 1.36 0 0 Z " fill="#23455D" transform="translate(97,60)"/>
<path d="M0 0 C5.28 0.33 10.56 0.66 16 1 C16.33 1.99 16.66 2.98 17 4 C12.05 4 7.1 4 2 4 C1.34 2.68 0.68 1.36 0 0 Z " fill="#133B4F" transform="translate(147,69)"/>
<path d="M0 0 C3.30276165 2.07382708 5.82628588 3.81325733 8.5 6.6875 C11.38827063 9.35915033 13.13680355 9.73047467 17 10 C17 10.33 17 10.66 17 11 C15.2507786 11.08142927 13.50045458 11.13938541 11.75 11.1875 C10.28820312 11.23970703 10.28820312 11.23970703 8.796875 11.29296875 C5.54404309 10.95223915 4.27825993 10.31968283 2 8 C0.92978016 5.35978784 0.5540752 2.81654895 0 0 Z " fill="#119552" transform="translate(128,37)"/>
<path d="M0 0 C0 0.99 0 1.98 0 3 C-1.76949612 3.50471197 -3.54065223 4.00360685 -5.3125 4.5 C-6.79169922 4.91765625 -6.79169922 4.91765625 -8.30078125 5.34375 C-11 6 -11 6 -14 6 C-14.33 4.68 -14.66 3.36 -15 2 C-13.43883181 1.66048381 -11.87598662 1.32867456 -10.3125 1 C-9.44238281 0.814375 -8.57226562 0.62875 -7.67578125 0.4375 C-5.06287036 0.01027953 -2.64186962 -0.07616201 0 0 Z " fill="#DEE1E2" transform="translate(124,71)"/>
<path d="M0 0 C5.61 0 11.22 0 17 0 C17.33 0.99 17.66 1.98 18 3 C12.39 3 6.78 3 1 3 C0.67 2.01 0.34 1.02 0 0 Z " fill="#143953" transform="translate(89,70)"/>
<path d="M0 0 C0.66 0.66 1.32 1.32 2 2 C4.57061311 2.64767793 4.57061311 2.64767793 7 3 C7 3.33 7 3.66 7 4 C5.6078125 4.4021875 5.6078125 4.4021875 4.1875 4.8125 C1.1688359 5.93710035 0.0844857 6.70706573 -2 9 C-2.66 9 -3.32 9 -4 9 C-4 8.34 -4 7.68 -4 7 C-4.99 7.33 -5.98 7.66 -7 8 C-8.72795352 8.06802967 -10.45835365 8.08495645 -12.1875 8.0625 C-13.53908203 8.04896484 -13.53908203 8.04896484 -14.91796875 8.03515625 C-15.60503906 8.02355469 -16.29210937 8.01195312 -17 8 C-17 7.67 -17 7.34 -17 7 C-16.08476563 6.89042969 -15.16953125 6.78085937 -14.2265625 6.66796875 C-13.03804688 6.50941406 -11.84953125 6.35085937 -10.625 6.1875 C-9.44164063 6.03667969 -8.25828125 5.88585938 -7.0390625 5.73046875 C-3.70467916 5.29300666 -3.70467916 5.29300666 -2 2 C-1.34 2 -0.68 2 0 2 C0 1.34 0 0.68 0 0 Z " fill="#104B5A" transform="translate(106,45)"/>
<path d="M0 0 C2.00894394 0.63920943 4.00779443 1.31039038 6 2 C7.1446875 2.37125 7.1446875 2.37125 8.3125 2.75 C10 4 10 4 10.75 7.125 C10.87375 8.548125 10.87375 8.548125 11 10 C8 10 8 10 5.95703125 8.3203125 C5.24933594 7.59585938 4.54164062 6.87140625 3.8125 6.125 C2.73935547 5.04605469 2.73935547 5.04605469 1.64453125 3.9453125 C0 2 0 2 0 0 Z " fill="#D7D4D3" transform="translate(39,209)"/>
<path d="M0 0 C2.31 0.33 4.62 0.66 7 1 C7 1.33 7 1.66 7 2 C9.64 2.33 12.28 2.66 15 3 C15 3.33 15 3.66 15 4 C10.97918212 4.02921779 6.95839186 4.04687188 2.9375 4.0625 C1.2369043 4.07506836 1.2369043 4.07506836 -0.49804688 4.08789062 C-6.10878867 4.10424847 -11.47649331 4.01812097 -17 3 C-17 2.67 -17 2.34 -17 2 C-11.39 2 -5.78 2 0 2 C0 1.34 0 0.68 0 0 Z " fill="#7E3963" transform="translate(126,242)"/>
<path d="M0 0 C0.66 0.33 1.32 0.66 2 1 C1.24074219 1.51949219 0.48148438 2.03898438 -0.30078125 2.57421875 C-1.29464844 3.27160156 -2.28851563 3.96898437 -3.3125 4.6875 C-4.29863281 5.37199219 -5.28476563 6.05648437 -6.30078125 6.76171875 C-8.99561152 8.99636093 -10.41422172 10.90962664 -12 14 C-13.32 13.01 -14.64 12.02 -16 11 C-10.89341984 6.87768132 -5.91301263 2.89616945 0 0 Z " fill="#CC4D46" transform="translate(146,175)"/>
<path d="M0 0 C0.99 0.33 1.98 0.66 3 1 C2.69381595 4.67420866 2.24228216 5.78135513 -0.5625 8.3125 C-1.366875 8.869375 -2.17125 9.42625 -3 10 C-3.66 8.68 -4.32 7.36 -5 6 C-3.35 4.02 -1.7 2.04 0 0 Z " fill="#E8E5E5" transform="translate(219,203)"/>
<path d="M0 0 C3.72433382 1.2125738 7.37802806 2.50859979 11 4 C11 4.99 11 5.98 11 7 C9.54077307 6.88590407 8.08259402 6.75834456 6.625 6.625 C5.40683594 6.52058594 5.40683594 6.52058594 4.1640625 6.4140625 C2 6 2 6 0 4 C0 2.68 0 1.36 0 0 Z " fill="#254964" transform="translate(67,75)"/>
<path d="M0 0 C3.81684226 1.55500981 6.19195732 4.03595495 9 7 C8.34 8.32 7.68 9.64 7 11 C1.21538462 6.81538462 1.21538462 6.81538462 0.125 2.6875 C0.08375 1.800625 0.0425 0.91375 0 0 Z " fill="#DCD9D9" transform="translate(48,214)"/>
<path d="M0 0 C-0.33 0.66 -0.66 1.32 -1 2 C-0.01 2 0.98 2 2 2 C1.67 2.99 1.34 3.98 1 5 C0.51015625 4.68289062 0.0203125 4.36578125 -0.484375 4.0390625 C-4.001677 2.58626385 -7.49665393 2.53415248 -11.25 2.375 C-11.99507812 2.33632813 -12.74015625 2.29765625 -13.5078125 2.2578125 C-15.3381524 2.16394892 -17.16904143 2.08090282 -19 2 C-19 1.67 -19 1.34 -19 1 C-18.16855469 0.93941406 -17.33710938 0.87882812 -16.48046875 0.81640625 C-14.85044922 0.69072266 -14.85044922 0.69072266 -13.1875 0.5625 C-12.10855469 0.48128906 -11.02960938 0.40007813 -9.91796875 0.31640625 C-1.8125 -0.5625 -1.8125 -0.5625 0 0 Z " fill="#CDE1CE" transform="translate(199,56)"/>
<path d="M0 0 C7.48291572 6.15034169 7.48291572 6.15034169 10 10 C9.01 10.33 8.02 10.66 7 11 C4.36 8.36 1.72 5.72 -1 3 C-0.67 2.01 -0.34 1.02 0 0 Z " fill="#401947" transform="translate(44,205)"/>
<path d="M0 0 C2 1 2 1 2.6875 3 C2.790625 3.66 2.89375 4.32 3 5 C2 6 2 6 -0.06640625 6.09765625 C-0.89011719 6.08605469 -1.71382813 6.07445313 -2.5625 6.0625 C-3.38878906 6.05347656 -4.21507813 6.04445313 -5.06640625 6.03515625 C-5.70449219 6.02355469 -6.34257813 6.01195313 -7 6 C-6.67 5.01 -6.34 4.02 -6 3 C-4.68 3 -3.36 3 -2 3 C-2 2.34 -2 1.68 -2 1 C-1.34 0.67 -0.68 0.34 0 0 Z " fill="#123551" transform="translate(86,77)"/>
<path d="M0 0 C3.96 0.33 7.92 0.66 12 1 C12.33 1.99 12.66 2.98 13 4 C11.58376784 4.05447047 10.16691809 4.09300508 8.75 4.125 C7.96109375 4.14820313 7.1721875 4.17140625 6.359375 4.1953125 C3.79268059 3.9828378 2.2083933 3.28654105 0 2 C0 1.34 0 0.68 0 0 Z " fill="#016862" transform="translate(129,35)"/>
<path d="M0 0 C0.33 1.32 0.66 2.64 1 4 C-1.31 5.65 -3.62 7.3 -6 9 C-6.66 8.34 -7.32 7.68 -8 7 C-4.13157895 0 -4.13157895 0 0 0 Z " fill="#E6E5E8" transform="translate(200,223)"/>
<path d="M0 0 C2.60045875 2.3024119 3.84739183 4.49896677 5.1875 7.6875 C5.53167969 8.49574219 5.87585938 9.30398437 6.23046875 10.13671875 C6.48441406 10.75160156 6.73835938 11.36648437 7 12 C3.34683329 10.75023244 2.21934164 10.32901247 0 7 C-0.07905064 4.66800612 -0.08798769 2.33167378 0 0 Z " fill="#E88031" transform="translate(113,227)"/>
<path d="M0 0 C0.99 0 1.98 0 3 0 C3 1.32 3 2.64 3 4 C4.65 4.33 6.3 4.66 8 5 C8 5.33 8 5.66 8 6 C4.7 6 1.4 6 -2 6 C-2.33 4.68 -2.66 3.36 -3 2 C-2.01 2 -1.02 2 0 2 C0 1.34 0 0.68 0 0 Z " fill="#42A849" transform="translate(188,61)"/>
<path d="M0 0 C3.3 0.33 6.6 0.66 10 1 C9 3 9 3 7.375 3.625 C4.2339425 4.12095645 1.17398169 4.06103811 -2 4 C-1.34 2.68 -0.68 1.36 0 0 Z " fill="#D0DBD7" transform="translate(179,75)"/>
<path d="M0 0 C0.66 1.32 1.32 2.64 2 4 C-5.38461538 4.36923077 -5.38461538 4.36923077 -8.5 2.5 C-8.995 2.005 -9.49 1.51 -10 1 C-6.61981469 -0.04005702 -3.5219721 -0.08004482 0 0 Z " fill="#D1D8D7" transform="translate(81,75)"/>
<path d="M0 0 C1.258125 -0.04125 2.51625 -0.0825 3.8125 -0.125 C4.52019531 -0.14820313 5.22789062 -0.17140625 5.95703125 -0.1953125 C8 0 8 0 11 2 C10.67 3.32 10.34 4.64 10 6 C11.32 6.33 12.64 6.66 14 7 C12.33388095 7.042721 10.66617115 7.04063832 9 7 C8.67 6.67 8.34 6.34 8 6 C5.67182036 5.63239269 3.3381615 5.29758419 1 5 C1 4.67 1 4.34 1 4 C3.31 4 5.62 4 8 4 C7.67 3.34 7.34 2.68 7 2 C4.67843403 1.59270772 2.3431213 1.25561323 0 1 C0 0.67 0 0.34 0 0 Z " fill="#097360" transform="translate(134,35)"/>
<path d="M0 0 C3.96 0.99 3.96 0.99 8 2 C7.67 2.99 7.34 3.98 7 5 C3.625 5.125 3.625 5.125 0 5 C-0.66 4.34 -1.32 3.68 -2 3 C-1.34 2.01 -0.68 1.02 0 0 Z " fill="#20405B" transform="translate(102,86)"/>
<path d="M0 0 C4.62 0 9.24 0 14 0 C14.33 1.32 14.66 2.64 15 4 C12.69 3.67 10.38 3.34 8 3 C8 2.67 8 2.34 8 2 C5.36 1.67 2.72 1.34 0 1 C0 0.67 0 0.34 0 0 Z " fill="#2A5666" transform="translate(154,69)"/>
<path d="M0 0 C2.64 0.99 5.28 1.98 8 3 C7.67 4.32 7.34 5.64 7 7 C2.25 6.125 2.25 6.125 0 5 C0 3.35 0 1.7 0 0 Z " fill="#173F54" transform="translate(112,55)"/>
<path d="M0 0 C0.556875 0.7425 1.11375 1.485 1.6875 2.25 C3.93027178 4.91707995 6.22074975 6.91556232 9 9 C5.39991481 9.32728047 3.58388508 9.40422813 0.5625 7.3125 C-1 5 -1 5 -0.75 2.25 C-0.5025 1.5075 -0.255 0.765 0 0 Z " fill="#E7733D" transform="translate(122,233)"/>
<path d="M0 0 C0.66 0 1.32 0 2 0 C2.35858439 3.85478218 2.2754818 5.57759458 0.125 8.875 C-0.57625 9.57625 -1.2775 10.2775 -2 11 C-2.66 11 -3.32 11 -4 11 C-3.52269162 9.5410574 -3.04308958 8.08286504 -2.5625 6.625 C-2.29566406 5.81289062 -2.02882812 5.00078125 -1.75390625 4.1640625 C-1 2 -1 2 0 0 Z " fill="#E47E36" transform="translate(143,228)"/>
<path d="M0 0 C2.31 0.33 4.62 0.66 7 1 C6.34 1.66 5.68 2.32 5 3 C5.3185177 5.10820797 5.3185177 5.10820797 6 7 C3.16032769 7 0.76264289 6.59732819 -2 6 C-1.34 5.01 -0.68 4.02 0 3 C0 2.01 0 1.02 0 0 Z " fill="#2F4A61" transform="translate(88,78)"/>
<path d="M0 0 C0.50015625 0.31710938 1.0003125 0.63421875 1.515625 0.9609375 C4.87241148 2.3648765 8.16286294 2.46225654 11.75 2.625 C12.44738281 2.66367188 13.14476563 2.70234375 13.86328125 2.7421875 C15.57510818 2.83598624 17.28751682 2.91906174 19 3 C19 3.33 19 3.66 19 4 C13.72 4 8.44 4 3 4 C3 4.66 3 5.32 3 6 C2.34 6 1.68 6 1 6 C1 5.01 1 4.02 1 3 C0.34 2.67 -0.32 2.34 -1 2 C-0.67 1.34 -0.34 0.68 0 0 Z " fill="#406B74" transform="translate(86,66)"/>
<path d="M0 0 C0.66 0 1.32 0 2 0 C3.38550197 2.77100394 3.1877467 4.9334706 3 8 C2.01 9.485 2.01 9.485 1 11 C0.34 11 -0.32 11 -1 11 C-0.67 7.37 -0.34 3.74 0 0 Z " fill="#E9813B" transform="translate(138,217)"/>
<path d="M0 0 C2.31 0.33 4.62 0.66 7 1 C7 2.32 7 3.64 7 5 C4.33333333 4.33333333 1.66666667 3.66666667 -1 3 C-0.67 2.01 -0.34 1.02 0 0 Z " fill="#573F4E" transform="translate(127,220)"/>
<path d="M0 0 C3.63 0.33 7.26 0.66 11 1 C9.68 1.33 8.36 1.66 7 2 C7.33 2.99 7.66 3.98 8 5 C4.5625 4.1875 4.5625 4.1875 1 3 C0.67 2.01 0.34 1.02 0 0 Z " fill="#CBD1D5" transform="translate(134,71)"/>
<path d="M0 0 C0.33 0.99 0.66 1.98 1 3 C-1.79870027 4.39935013 -3.90498792 4.25265405 -7 4 C-8.875 2.5 -8.875 2.5 -10 1 C-6.59437148 0.22157062 -3.49234244 -0.09978121 0 0 Z " fill="#194457" transform="translate(154,63)"/>
<path d="M0 0 C2.31 0 4.62 0 7 0 C7 0.99 7 1.98 7 3 C4.29120665 4.35439668 1.99066732 4.06501451 -1 4 C-0.67 2.68 -0.34 1.36 0 0 Z " fill="#1A4258" transform="translate(137,58)"/>
<path d="M0 0 C0.66 0.33 1.32 0.66 2 1 C0.90101298 4.29696105 0.05402613 5.04670589 -2.5625 7.1875 C-3.20316406 7.71730469 -3.84382813 8.24710938 -4.50390625 8.79296875 C-4.99761719 9.19128906 -5.49132813 9.58960938 -6 10 C-6.66 9.67 -7.32 9.34 -8 9 C-6.4169423 4.7257442 -3.49431596 2.73468206 0 0 Z " fill="#606564" transform="translate(49,30)"/>
<path d="M0 0 C6.27 0 12.54 0 19 0 C18.67 0.99 18.34 1.98 18 3 C12.06 2.34 6.12 1.68 0 1 C0 0.67 0 0.34 0 0 Z " fill="#E6E7E7" transform="translate(92,74)"/>
<path d="M0 0 C0.99 0.33 1.98 0.66 3 1 C3.33 1.99 3.66 2.98 4 4 C1.64722731 6.72426311 -0.62496331 7.8141763 -4 9 C-2.80100302 5.9168649 -1.52299523 2.93720508 0 0 Z " fill="#E1DDD9" transform="translate(233,182)"/>
<path d="M0 0 C0.99 0.33 1.98 0.66 3 1 C2.01 2.485 2.01 2.485 1 4 C1 4.99 1 5.98 1 7 C0.21625 6.814375 -0.5675 6.62875 -1.375 6.4375 C-3.97089775 5.74037734 -3.97089775 5.74037734 -6 7 C-4.61990379 3.66476748 -3.15049348 1.81392049 0 0 Z " fill="#757878" transform="translate(36,43)"/>
<path d="M0 0 C1.98 0 3.96 0 6 0 C6.66 1.32 7.32 2.64 8 4 C5.69 4.33 3.38 4.66 1 5 C1.33 4.01 1.66 3.02 2 2 C1.34 1.34 0.68 0.68 0 0 Z " fill="#DCD9DD" transform="translate(141,245)"/>
<path d="M0 0 C2.12508244 3.18762365 2.5020163 5.26512223 3 9 C2.01 9 1.02 9 0 9 C-1.36623674 6.26752652 -1.128426 4.01801098 -1 1 C-0.67 0.67 -0.34 0.34 0 0 Z " fill="#E6772F" transform="translate(118,218)"/>
<path d="M0 0 C1.32 1.32 2.64 2.64 4 4 C2.68 4.99 1.36 5.98 0 7 C-0.99 5.68 -1.98 4.36 -3 3 C-2.01 2.01 -1.02 1.02 0 0 Z " fill="#D8D5D6" transform="translate(213,210)"/>
<path d="M0 0 C0.99 0 1.98 0 3 0 C3.66 1.65 4.32 3.3 5 5 C3.02 5 1.04 5 -1 5 C-1 1 -1 1 0 0 Z " fill="#036E57" transform="translate(109,43)"/>
<path d="M0 0 C1.45823212 -0.0270043 2.91660675 -0.04639787 4.375 -0.0625 C5.18710938 -0.07410156 5.99921875 -0.08570312 6.8359375 -0.09765625 C9 0 9 0 11 1 C11.625 3.0625 11.625 3.0625 12 5 C9.69 4.34 7.38 3.68 5 3 C5 2.34 5 1.68 5 1 C3.35 1 1.7 1 0 1 C0 0.67 0 0.34 0 0 Z " fill="#309658" transform="translate(112,27)"/>
<path d="M0 0 C0.33 0.66 0.66 1.32 1 2 C0.360625 2.12375 -0.27875 2.2475 -0.9375 2.375 C-1.618125 2.58125 -2.29875 2.7875 -3 3 C-3.33 3.66 -3.66 4.32 -4 5 C-1.69 5 0.62 5 3 5 C3 5.33 3 5.66 3 6 C-5.57142857 6.28571429 -5.57142857 6.28571429 -9 4 C-6.01353231 2.00902154 -3.40312738 1.05875074 0 0 Z " fill="#4F697C" transform="translate(83,78)"/>
<path d="M0 0 C0 0.99 0 1.98 0 3 C-4.05431692 4.15837626 -6.21812119 3.83691257 -10 2 C-10 1.67 -10 1.34 -10 1 C-6.59437148 0.22157062 -3.49234244 -0.09978121 0 0 Z " fill="#BFC7CE" transform="translate(124,71)"/>
<path d="M0 0 C3.39192363 0.59283621 5.2107757 1.76743189 7.75 4.0625 C8.67039063 4.88427734 8.67039063 4.88427734 9.609375 5.72265625 C10.29773438 6.35494141 10.29773438 6.35494141 11 7 C10.67 7.66 10.34 8.32 10 9 C9.46375 8.401875 8.9275 7.80375 8.375 7.1875 C5.76857355 4.78684406 3.2115927 3.45981486 0 2 C0 1.34 0 0.68 0 0 Z " fill="#9A9C9D" transform="translate(214,36)"/>
<path d="M0 0 C6.52307692 0.49230769 6.52307692 0.49230769 8.9375 3.0625 C9.288125 3.701875 9.63875 4.34125 10 5 C7.07171074 5 4.79597286 4.86029934 2 4 C0.6875 1.9375 0.6875 1.9375 0 0 Z " fill="#DCD9DA" transform="translate(36,206)"/>
<path d="M0 0 C0.99 0.33 1.98 0.66 3 1 C2.67 2.65 2.34 4.3 2 6 C0.35 6 -1.3 6 -3 6 C-2.42655063 3.13275314 -2.1385485 2.1385485 0 0 Z " fill="#0C3452" transform="translate(43,67)"/>
<path d="M0 0 C0 0.66 0 1.32 0 2 C-1.63790712 3.04644066 -3.31008021 4.0398183 -5 5 C-6.34631825 5.98244845 -7.68441297 6.97676564 -9 8 C-8.49396008 5.83125748 -8.00016187 4.00032373 -7 2 C-4.37418862 0.42451317 -3.12900213 0 0 0 Z " fill="#36A763" transform="translate(184,60)"/>
<path d="M0 0 C-0.75 1.9375 -0.75 1.9375 -2 4 C-4.125 4.75 -4.125 4.75 -6 5 C-6.33 4.34 -6.66 3.68 -7 3 C-4.49955934 -0.00052879 -4.2621484 0 0 0 Z " fill="#184753" transform="translate(171,57)"/>
<path d="M0 0 C4.455 0.99 4.455 0.99 9 2 C8.01 2.99 7.02 3.98 6 5 C4.68 5 3.36 5 2 5 C2 4.34 2 3.68 2 3 C1.34 2.67 0.68 2.34 0 2 C0 1.34 0 0.68 0 0 Z " fill="#D6D7D8" transform="translate(157,55)"/>
<path d="M0 0 C3.3 0 6.6 0 10 0 C10 0.99 10 1.98 10 3 C5.06071112 3.3367697 4.21507278 3.16130459 0 0 Z " fill="#113857" transform="translate(114,89)"/>
<path d="M0 0 C2.31 0 4.62 0 7 0 C6.67 0.99 6.34 1.98 6 3 C3.69 3 1.38 3 -1 3 C-0.67 2.01 -0.34 1.02 0 0 Z " fill="#10435E" transform="translate(136,89)"/>
<path d="M0 0 C2.64 0 5.28 0 8 0 C8.33 0.99 8.66 1.98 9 3 C6.03 2.67 3.06 2.34 0 2 C0 1.34 0 0.68 0 0 Z " fill="#133F54" transform="translate(155,70)"/>
<path d="M0 0 C-0.33 0.99 -0.66 1.98 -1 3 C-3.64 3 -6.28 3 -9 3 C-9 2.34 -9 1.68 -9 1 C-5.92677456 0.08941469 -3.19902639 -0.08886184 0 0 Z " fill="#113650" transform="translate(116,64)"/>
<path d="M0 0 C3.3 0 6.6 0 10 0 C8.515 1.485 8.515 1.485 7 3 C3.875 2.8125 3.875 2.8125 1 2 C0.67 1.34 0.34 0.68 0 0 Z " fill="#F1F1EA" transform="translate(180,58)"/>
<path d="M0 0 C0.99 0.66 1.98 1.32 3 2 C2.67 3.65 2.34 5.3 2 7 C0 5.6875 0 5.6875 -2 4 C-2 3.01 -2 2.02 -2 1 C-1.34 0.67 -0.68 0.34 0 0 Z " fill="#5F6061" transform="translate(41,215)"/>
<path d="M0 0 C1.67542976 0.28604898 3.34385343 0.61781233 5 1 C5 1.99 5 2.98 5 4 C3.02 4 1.04 4 -1 4 C-1 1 -1 1 0 0 Z " fill="#153C5B" transform="translate(73,78)"/>
<path d="M0 0 C2.97 0 5.94 0 9 0 C9 0.66 9 1.32 9 2 C6.69 2.33 4.38 2.66 2 3 C1.34 2.01 0.68 1.02 0 0 Z " fill="#E4EBE6" transform="translate(70,58)"/>
<path d="M0 0 C0.66 0.33 1.32 0.66 2 1 C2 3.31 2 5.62 2 8 C0.68 6.68 -0.64 5.36 -2 4 C-1.34 2.68 -0.68 1.36 0 0 Z " fill="#9D3246" transform="translate(135,222)"/>
<path d="M0 0 C0.33 0 0.66 0 1 0 C1.33 4.95 1.66 9.9 2 15 C1.01 15.33 0.02 15.66 -1 16 C-0.67 10.72 -0.34 5.44 0 0 Z " fill="#175C62" transform="translate(130,170)"/>
<path d="M0 0 C0.99 0.33 1.98 0.66 3 1 C3 1.99 3 2.98 3 4 C3.99 4.33 4.98 4.66 6 5 C3.69 4.67 1.38 4.34 -1 4 C-1 1 -1 1 0 0 Z " fill="#2E5C6A" transform="translate(174,75)"/>
<path d="M0 0 C2.475 0.99 2.475 0.99 5 2 C2.64046906 4.35953094 1.22104383 4.49141413 -2 5 C-1.125 1.125 -1.125 1.125 0 0 Z " fill="#144C5A" transform="translate(75,71)"/>
<path d="M0 0 C2.97 0.495 2.97 0.495 6 1 C5.01 1.495 5.01 1.495 4 2 C3.34786708 4.02463255 3.34786708 4.02463255 3 6 C1.68 4.68 0.36 3.36 -1 2 C-0.67 1.34 -0.34 0.68 0 0 Z " fill="#CFD8D5" transform="translate(79,58)"/>
<path d="M0 0 C0 0.99 0 1.98 0 3 C-2.3125 3.6875 -2.3125 3.6875 -5 4 C-6.8125 2.5625 -6.8125 2.5625 -8 1 C-5.23735711 0.40267181 -2.83967231 0 0 0 Z " fill="#144656" transform="translate(102,52)"/>
<path d="M0 0 C1.32 0 2.64 0 4 0 C3.34 2.31 2.68 4.62 2 7 C0.68 5.35 -0.64 3.7 -2 2 C-1.34 1.34 -0.68 0.68 0 0 Z " fill="#11575C" transform="translate(77,39)"/>
<path d="M0 0 C0 0.66 0 1.32 0 2 C-4.455 3.485 -4.455 3.485 -9 5 C-4.5 0 -4.5 0 0 0 Z " fill="#175D63" transform="translate(98,33)"/>
<path d="M0 0 C0.66 0.66 1.32 1.32 2 2 C1.7578125 4.3828125 1.7578125 4.3828125 1.125 7.125 C0.92132813 8.03507813 0.71765625 8.94515625 0.5078125 9.8828125 C0.34023437 10.58148438 0.17265625 11.28015625 0 12 C-0.33 12 -0.66 12 -1 12 C-1 9.36 -1 6.72 -1 4 C-1.66 4 -2.32 4 -3 4 C-2 2 -2 2 0 0 Z " fill="#AB3E45" transform="translate(121,225)"/>
<path d="M0 0 C1.98 0.99 1.98 0.99 4 2 C4 3.32 4 4.64 4 6 C3.01 6 2.02 6 1 6 C0.67 4.02 0.34 2.04 0 0 Z " fill="#E1DDDE" transform="translate(48,214)"/>
<path d="M0 0 C2.125 0.375 2.125 0.375 4 1 C3.34 2.32 2.68 3.64 2 5 C0.68 4.01 -0.64 3.02 -2 2 C-1.34 1.34 -0.68 0.68 0 0 Z " fill="#CB473E" transform="translate(132,184)"/>
<path d="M0 0 C-0.33 1.65 -0.66 3.3 -1 5 C-1.99 5 -2.98 5 -4 5 C-4.33 4.01 -4.66 3.02 -5 2 C-2 0 -2 0 0 0 Z " fill="#E9E9E6" transform="translate(239,179)"/>
<path d="M0 0 C2.64 0 5.28 0 8 0 C7.67 0.99 7.34 1.98 7 3 C5.35 3 3.7 3 2 3 C2 2.34 2 1.68 2 1 C1.34 0.67 0.68 0.34 0 0 Z " fill="#112F4A" transform="translate(91,80)"/>
<path d="M0 0 C0.33 0.66 0.66 1.32 1 2 C1.99 2.33 2.98 2.66 4 3 C3.67 3.99 3.34 4.98 3 6 C1.35 5.67 -0.3 5.34 -2 5 C-1.34 4.67 -0.68 4.34 0 4 C0 2.68 0 1.36 0 0 Z " fill="#1D3D52" transform="translate(93,57)"/>
<path d="M0 0 C2.64 0 5.28 0 8 0 C8 0.66 8 1.32 8 2 C5.36 2.33 2.72 2.66 0 3 C0 2.01 0 1.02 0 0 Z " fill="#074459" transform="translate(107,41)"/>
<path d="M0 0 C0.99 0.99 1.98 1.98 3 3 C2.34 4.65 1.68 6.3 1 8 C-0.42944945 5.64561267 -1.08661261 4.51967567 -0.625 1.75 C-0.41875 1.1725 -0.2125 0.595 0 0 Z " fill="#E4E3E2" transform="translate(29,190)"/>
<path d="M0 0 C0.33 0.99 0.66 1.98 1 3 C-1.31 3.66 -3.62 4.32 -6 5 C-5.67 4.01 -5.34 3.02 -5 2 C-2.4375 0.8125 -2.4375 0.8125 0 0 Z " fill="#2B9571" transform="translate(174,65)"/>
<path d="M0 0 C1.65 0 3.3 0 5 0 C5.33 0.66 5.66 1.32 6 2 C8.52733235 2.65555119 8.52733235 2.65555119 11 3 C11 3.33 11 3.66 11 4 C7.06225823 4.36630156 5.43460229 4.30233203 2.125 2 C1.42375 1.34 0.7225 0.68 0 0 Z " fill="#64BD43" transform="translate(158,46)"/>
<path d="M0 0 C1.22589844 0.29197266 1.22589844 0.29197266 2.4765625 0.58984375 C3.41628906 0.82380859 3.41628906 0.82380859 4.375 1.0625 C4.375 1.3925 4.375 1.7225 4.375 2.0625 C0.745 2.0625 -2.885 2.0625 -6.625 2.0625 C-6.625 1.4025 -6.625 0.7425 -6.625 0.0625 C-3.99249612 -1.25375194 -2.82320944 -0.68563658 0 0 Z " fill="#159057" transform="translate(140.625,45.9375)"/>
<path d="M0 0 C2.1875 0.3125 2.1875 0.3125 4 1 C3.67 1.99 3.34 2.98 3 4 C0.03 3.505 0.03 3.505 -3 3 C-1.75 1.4375 -1.75 1.4375 0 0 Z " fill="#1B845D" transform="translate(109,28)"/>
</svg>
